%TF.GenerationSoftware,KiCad,Pcbnew,(6.0.1-0)*%
%TF.CreationDate,2023-01-31T22:38:11+01:00*%
%TF.ProjectId,Yusynth4lfo,59757379-6e74-4683-946c-666f2e6b6963,rev?*%
%TF.SameCoordinates,Original*%
%TF.FileFunction,Legend,Bot*%
%TF.FilePolarity,Positive*%
%FSLAX46Y46*%
G04 Gerber Fmt 4.6, Leading zero omitted, Abs format (unit mm)*
G04 Created by KiCad (PCBNEW (6.0.1-0)) date 2023-01-31 22:38:11*
%MOMM*%
%LPD*%
G01*
G04 APERTURE LIST*
%ADD10C,0.150000*%
%ADD11C,0.120000*%
G04 APERTURE END LIST*
D10*
%TO.C,J10*%
X146709523Y-90822380D02*
X146709523Y-91536666D01*
X146757142Y-91679523D01*
X146852380Y-91774761D01*
X146995238Y-91822380D01*
X147090476Y-91822380D01*
X145709523Y-91822380D02*
X146280952Y-91822380D01*
X145995238Y-91822380D02*
X145995238Y-90822380D01*
X146090476Y-90965238D01*
X146185714Y-91060476D01*
X146280952Y-91108095D01*
X145090476Y-90822380D02*
X144995238Y-90822380D01*
X144900000Y-90870000D01*
X144852380Y-90917619D01*
X144804761Y-91012857D01*
X144757142Y-91203333D01*
X144757142Y-91441428D01*
X144804761Y-91631904D01*
X144852380Y-91727142D01*
X144900000Y-91774761D01*
X144995238Y-91822380D01*
X145090476Y-91822380D01*
X145185714Y-91774761D01*
X145233333Y-91727142D01*
X145280952Y-91631904D01*
X145328571Y-91441428D01*
X145328571Y-91203333D01*
X145280952Y-91012857D01*
X145233333Y-90917619D01*
X145185714Y-90870000D01*
X145090476Y-90822380D01*
%TO.C,J8*%
X191133333Y-104532380D02*
X191133333Y-105246666D01*
X191180952Y-105389523D01*
X191276190Y-105484761D01*
X191419047Y-105532380D01*
X191514285Y-105532380D01*
X190514285Y-104960952D02*
X190609523Y-104913333D01*
X190657142Y-104865714D01*
X190704761Y-104770476D01*
X190704761Y-104722857D01*
X190657142Y-104627619D01*
X190609523Y-104580000D01*
X190514285Y-104532380D01*
X190323809Y-104532380D01*
X190228571Y-104580000D01*
X190180952Y-104627619D01*
X190133333Y-104722857D01*
X190133333Y-104770476D01*
X190180952Y-104865714D01*
X190228571Y-104913333D01*
X190323809Y-104960952D01*
X190514285Y-104960952D01*
X190609523Y-105008571D01*
X190657142Y-105056190D01*
X190704761Y-105151428D01*
X190704761Y-105341904D01*
X190657142Y-105437142D01*
X190609523Y-105484761D01*
X190514285Y-105532380D01*
X190323809Y-105532380D01*
X190228571Y-105484761D01*
X190180952Y-105437142D01*
X190133333Y-105341904D01*
X190133333Y-105151428D01*
X190180952Y-105056190D01*
X190228571Y-105008571D01*
X190323809Y-104960952D01*
%TO.C,J9*%
X222783333Y-90922380D02*
X222783333Y-91636666D01*
X222830952Y-91779523D01*
X222926190Y-91874761D01*
X223069047Y-91922380D01*
X223164285Y-91922380D01*
X222259523Y-91922380D02*
X222069047Y-91922380D01*
X221973809Y-91874761D01*
X221926190Y-91827142D01*
X221830952Y-91684285D01*
X221783333Y-91493809D01*
X221783333Y-91112857D01*
X221830952Y-91017619D01*
X221878571Y-90970000D01*
X221973809Y-90922380D01*
X222164285Y-90922380D01*
X222259523Y-90970000D01*
X222307142Y-91017619D01*
X222354761Y-91112857D01*
X222354761Y-91350952D01*
X222307142Y-91446190D01*
X222259523Y-91493809D01*
X222164285Y-91541428D01*
X221973809Y-91541428D01*
X221878571Y-91493809D01*
X221830952Y-91446190D01*
X221783333Y-91350952D01*
%TO.C,J7*%
X177833333Y-104442380D02*
X177833333Y-105156666D01*
X177880952Y-105299523D01*
X177976190Y-105394761D01*
X178119047Y-105442380D01*
X178214285Y-105442380D01*
X177452380Y-104442380D02*
X176785714Y-104442380D01*
X177214285Y-105442380D01*
D11*
%TO.C,J10*%
X147230000Y-115350000D02*
X144570000Y-115350000D01*
X147230000Y-94970000D02*
X147230000Y-115350000D01*
X144570000Y-94970000D02*
X144570000Y-115350000D01*
X147230000Y-93700000D02*
X147230000Y-92370000D01*
X147230000Y-92370000D02*
X145900000Y-92370000D01*
X147230000Y-94970000D02*
X144570000Y-94970000D01*
%TO.C,J8*%
X189470000Y-73480000D02*
X192130000Y-73480000D01*
X189470000Y-101480000D02*
X192130000Y-101480000D01*
X189470000Y-101480000D02*
X189470000Y-73480000D01*
X189470000Y-102750000D02*
X189470000Y-104080000D01*
X189470000Y-104080000D02*
X190800000Y-104080000D01*
X192130000Y-101480000D02*
X192130000Y-73480000D01*
%TO.C,J9*%
X223780000Y-95070000D02*
X223780000Y-115450000D01*
X223780000Y-115450000D02*
X221120000Y-115450000D01*
X223780000Y-95070000D02*
X221120000Y-95070000D01*
X221120000Y-95070000D02*
X221120000Y-115450000D01*
X223780000Y-93800000D02*
X223780000Y-92470000D01*
X223780000Y-92470000D02*
X222450000Y-92470000D01*
%TO.C,J7*%
X178830000Y-101390000D02*
X178830000Y-73390000D01*
X176170000Y-101390000D02*
X178830000Y-101390000D01*
X176170000Y-101390000D02*
X176170000Y-73390000D01*
X176170000Y-73390000D02*
X178830000Y-73390000D01*
X176170000Y-102660000D02*
X176170000Y-103990000D01*
X176170000Y-103990000D02*
X177500000Y-103990000D01*
%TD*%
M02*
