%TF.GenerationSoftware,KiCad,Pcbnew,(6.0.1-0)*%
%TF.CreationDate,2023-01-31T22:38:10+01:00*%
%TF.ProjectId,Yusynth4lfo,59757379-6e74-4683-946c-666f2e6b6963,rev?*%
%TF.SameCoordinates,Original*%
%TF.FileFunction,Copper,L1,Top*%
%TF.FilePolarity,Positive*%
%FSLAX46Y46*%
G04 Gerber Fmt 4.6, Leading zero omitted, Abs format (unit mm)*
G04 Created by KiCad (PCBNEW (6.0.1-0)) date 2023-01-31 22:38:10*
%MOMM*%
%LPD*%
G01*
G04 APERTURE LIST*
G04 Aperture macros list*
%AMRoundRect*
0 Rectangle with rounded corners*
0 $1 Rounding radius*
0 $2 $3 $4 $5 $6 $7 $8 $9 X,Y pos of 4 corners*
0 Add a 4 corners polygon primitive as box body*
4,1,4,$2,$3,$4,$5,$6,$7,$8,$9,$2,$3,0*
0 Add four circle primitives for the rounded corners*
1,1,$1+$1,$2,$3*
1,1,$1+$1,$4,$5*
1,1,$1+$1,$6,$7*
1,1,$1+$1,$8,$9*
0 Add four rect primitives between the rounded corners*
20,1,$1+$1,$2,$3,$4,$5,0*
20,1,$1+$1,$4,$5,$6,$7,0*
20,1,$1+$1,$6,$7,$8,$9,0*
20,1,$1+$1,$8,$9,$2,$3,0*%
G04 Aperture macros list end*
%TA.AperFunction,ComponentPad*%
%ADD10C,1.600000*%
%TD*%
%TA.AperFunction,ComponentPad*%
%ADD11O,1.600000X1.600000*%
%TD*%
%TA.AperFunction,ComponentPad*%
%ADD12R,1.600000X1.600000*%
%TD*%
%TA.AperFunction,ComponentPad*%
%ADD13R,2.400000X1.600000*%
%TD*%
%TA.AperFunction,ComponentPad*%
%ADD14O,2.400000X1.600000*%
%TD*%
%TA.AperFunction,ComponentPad*%
%ADD15R,1.830000X1.930000*%
%TD*%
%TA.AperFunction,ComponentPad*%
%ADD16C,2.130000*%
%TD*%
%TA.AperFunction,ComponentPad*%
%ADD17R,1.800000X1.800000*%
%TD*%
%TA.AperFunction,ComponentPad*%
%ADD18C,1.800000*%
%TD*%
%TA.AperFunction,ComponentPad*%
%ADD19R,1.930000X1.830000*%
%TD*%
%TA.AperFunction,ComponentPad*%
%ADD20R,1.500000X1.050000*%
%TD*%
%TA.AperFunction,ComponentPad*%
%ADD21O,1.500000X1.050000*%
%TD*%
%TA.AperFunction,ComponentPad*%
%ADD22C,1.440000*%
%TD*%
%TA.AperFunction,ComponentPad*%
%ADD23R,1.400000X1.400000*%
%TD*%
%TA.AperFunction,ComponentPad*%
%ADD24C,1.400000*%
%TD*%
%TA.AperFunction,ComponentPad*%
%ADD25RoundRect,0.250000X-0.600000X-0.600000X0.600000X-0.600000X0.600000X0.600000X-0.600000X0.600000X0*%
%TD*%
%TA.AperFunction,ComponentPad*%
%ADD26C,1.700000*%
%TD*%
%TA.AperFunction,ComponentPad*%
%ADD27R,2.000000X2.000000*%
%TD*%
%TA.AperFunction,ComponentPad*%
%ADD28O,2.000000X2.000000*%
%TD*%
%TA.AperFunction,ComponentPad*%
%ADD29O,2.720000X3.240000*%
%TD*%
%TA.AperFunction,ComponentPad*%
%ADD30R,1.700000X1.700000*%
%TD*%
%TA.AperFunction,ComponentPad*%
%ADD31O,1.700000X1.700000*%
%TD*%
%TA.AperFunction,ViaPad*%
%ADD32C,0.800000*%
%TD*%
%TA.AperFunction,Conductor*%
%ADD33C,0.250000*%
%TD*%
%TA.AperFunction,Conductor*%
%ADD34C,0.400000*%
%TD*%
G04 APERTURE END LIST*
D10*
%TO.P,R32,1*%
%TO.N,/270*%
X155000000Y-49500000D03*
D11*
%TO.P,R32,2*%
%TO.N,/Direction sw C4*%
X147380000Y-49500000D03*
%TD*%
D10*
%TO.P,R30,1*%
%TO.N,Net-(R25-Pad1)*%
X171500000Y-72560000D03*
D11*
%TO.P,R30,2*%
%TO.N,Net-(Q6-Pad2)*%
X171500000Y-64940000D03*
%TD*%
D12*
%TO.P,C3,1*%
%TO.N,GND*%
X165755113Y-51600000D03*
D10*
%TO.P,C3,2*%
%TO.N,-12V*%
X163755113Y-51600000D03*
%TD*%
D13*
%TO.P,U2,1*%
%TO.N,Net-(R17-Pad2)*%
X162030000Y-82640000D03*
D14*
%TO.P,U2,2,-*%
%TO.N,Net-(R12-Pad2)*%
X162030000Y-85180000D03*
%TO.P,U2,3,+*%
%TO.N,Net-(R13-Pad2)*%
X162030000Y-87720000D03*
%TO.P,U2,4,V+*%
%TO.N,+12V*%
X162030000Y-90260000D03*
%TO.P,U2,5,+*%
%TO.N,GND*%
X162030000Y-92800000D03*
%TO.P,U2,6,-*%
%TO.N,Net-(C4-Pad1)*%
X162030000Y-95340000D03*
%TO.P,U2,7*%
%TO.N,/Output level1 Cw*%
X162030000Y-97880000D03*
%TO.P,U2,8*%
%TO.N,/Output level2 CW*%
X169650000Y-97880000D03*
%TO.P,U2,9,-*%
%TO.N,Net-(C1-Pad1)*%
X169650000Y-95340000D03*
%TO.P,U2,10,+*%
%TO.N,GND*%
X169650000Y-92800000D03*
%TO.P,U2,11,V-*%
%TO.N,-12V*%
X169650000Y-90260000D03*
%TO.P,U2,12,+*%
%TO.N,GND*%
X169650000Y-87720000D03*
%TO.P,U2,13,-*%
X169650000Y-85180000D03*
%TO.P,U2,14*%
%TO.N,unconnected-(U2-Pad14)*%
X169650000Y-82640000D03*
%TD*%
D10*
%TO.P,R12,1*%
%TO.N,/Output level2 CW*%
X158750000Y-68690000D03*
D11*
%TO.P,R12,2*%
%TO.N,Net-(R12-Pad2)*%
X158750000Y-76310000D03*
%TD*%
D15*
%TO.P,J4,S*%
%TO.N,GND*%
X209420000Y-140800000D03*
D16*
%TO.P,J4,T*%
%TO.N,/270*%
X220820000Y-140800000D03*
%TO.P,J4,TN*%
%TO.N,N/C*%
X212520000Y-140800000D03*
%TD*%
D17*
%TO.P,D5,1,K*%
%TO.N,GND*%
X206125000Y-119300000D03*
D18*
%TO.P,D5,2,A*%
%TO.N,/Green led*%
X208665000Y-119300000D03*
%TD*%
D19*
%TO.P,J1,S*%
%TO.N,GND*%
X215650000Y-109130000D03*
D16*
%TO.P,J1,T*%
%TO.N,Net-(J1-PadT)*%
X215650000Y-97730000D03*
%TO.P,J1,TN*%
%TO.N,N/C*%
X215650000Y-106030000D03*
%TD*%
D10*
%TO.P,C4,1*%
%TO.N,Net-(C4-Pad1)*%
X155300000Y-95800000D03*
%TO.P,C4,2*%
%TO.N,/Output level1 Cw*%
X155300000Y-100800000D03*
%TD*%
D13*
%TO.P,U3,1*%
%TO.N,/Direction sw C1*%
X159480000Y-101580000D03*
D14*
%TO.P,U3,2,-*%
X159480000Y-104120000D03*
%TO.P,U3,3,+*%
%TO.N,/Output level1 WP*%
X159480000Y-106660000D03*
%TO.P,U3,4,V+*%
%TO.N,+12V*%
X159480000Y-109200000D03*
%TO.P,U3,5,+*%
%TO.N,GND*%
X159480000Y-111740000D03*
%TO.P,U3,6,-*%
%TO.N,Net-(R24-Pad1)*%
X159480000Y-114280000D03*
%TO.P,U3,7*%
%TO.N,/Direction sw C2*%
X159480000Y-116820000D03*
%TO.P,U3,8*%
%TO.N,Net-(R25-Pad1)*%
X167100000Y-116820000D03*
%TO.P,U3,9,-*%
%TO.N,Net-(R23-Pad1)*%
X167100000Y-114280000D03*
%TO.P,U3,10,+*%
%TO.N,GND*%
X167100000Y-111740000D03*
%TO.P,U3,11,V-*%
%TO.N,-12V*%
X167100000Y-109200000D03*
%TO.P,U3,12,+*%
%TO.N,/Output level2 WP*%
X167100000Y-106660000D03*
%TO.P,U3,13,-*%
%TO.N,Net-(R23-Pad2)*%
X167100000Y-104120000D03*
%TO.P,U3,14*%
X167100000Y-101580000D03*
%TD*%
D20*
%TO.P,Q5,1,C*%
%TO.N,+12V*%
X156110000Y-65750000D03*
D21*
%TO.P,Q5,2,B*%
%TO.N,Net-(Q5-Pad2)*%
X156110000Y-64480000D03*
%TO.P,Q5,3,E*%
%TO.N,Net-(Q5-Pad3)*%
X156110000Y-63210000D03*
%TD*%
D10*
%TO.P,R28,1*%
%TO.N,Net-(R23-Pad2)*%
X155000000Y-76310000D03*
D11*
%TO.P,R28,2*%
%TO.N,Net-(Q5-Pad2)*%
X155000000Y-68690000D03*
%TD*%
D10*
%TO.P,R7,1*%
%TO.N,Net-(Q2-Pad2)*%
X163490000Y-148400000D03*
D11*
%TO.P,R7,2*%
%TO.N,GND*%
X171110000Y-148400000D03*
%TD*%
D10*
%TO.P,C6,1*%
%TO.N,+12V*%
X159250000Y-79000000D03*
%TO.P,C6,2*%
%TO.N,-12V*%
X164250000Y-79000000D03*
%TD*%
D22*
%TO.P,RV3,1,1*%
%TO.N,-12V*%
X176950000Y-141630000D03*
%TO.P,RV3,2,2*%
%TO.N,Net-(R6-Pad1)*%
X176950000Y-144170000D03*
%TO.P,RV3,3,3*%
%TO.N,GND*%
X176950000Y-146710000D03*
%TD*%
D20*
%TO.P,Q1,1,C*%
%TO.N,+12V*%
X163110000Y-65790000D03*
D21*
%TO.P,Q1,2,B*%
%TO.N,Net-(Q1-Pad2)*%
X163110000Y-64520000D03*
%TO.P,Q1,3,E*%
%TO.N,Net-(Q1-Pad3)*%
X163110000Y-63250000D03*
%TD*%
D10*
%TO.P,R29,1*%
%TO.N,/0*%
X177800000Y-106200000D03*
D11*
%TO.P,R29,2*%
%TO.N,Net-(R23-Pad2)*%
X170180000Y-106200000D03*
%TD*%
D10*
%TO.P,R6,1*%
%TO.N,Net-(R6-Pad1)*%
X172350000Y-144580000D03*
D11*
%TO.P,R6,2*%
%TO.N,Net-(Q2-Pad2)*%
X164730000Y-144580000D03*
%TD*%
D10*
%TO.P,R13,1*%
%TO.N,GND*%
X150000000Y-86810000D03*
D11*
%TO.P,R13,2*%
%TO.N,Net-(R13-Pad2)*%
X150000000Y-79190000D03*
%TD*%
D20*
%TO.P,Q4,1,C*%
%TO.N,+12V*%
X156110000Y-59750000D03*
D21*
%TO.P,Q4,2,B*%
%TO.N,Net-(Q4-Pad2)*%
X156110000Y-58480000D03*
%TO.P,Q4,3,E*%
%TO.N,Net-(Q4-Pad3)*%
X156110000Y-57210000D03*
%TD*%
D10*
%TO.P,R8,1*%
%TO.N,Net-(R8-Pad1)*%
X170540000Y-130880000D03*
D11*
%TO.P,R8,2*%
%TO.N,GND*%
X178160000Y-130880000D03*
%TD*%
D10*
%TO.P,R15,1*%
%TO.N,-12V*%
X168060000Y-43750000D03*
D11*
%TO.P,R15,2*%
X160440000Y-43750000D03*
%TD*%
D10*
%TO.P,R19,1*%
%TO.N,Net-(R17-Pad2)*%
X149190000Y-125400000D03*
D11*
%TO.P,R19,2*%
%TO.N,Net-(R19-Pad2)*%
X156810000Y-125400000D03*
%TD*%
D12*
%TO.P,C2,1*%
%TO.N,+12V*%
X158200000Y-52600000D03*
D10*
%TO.P,C2,2*%
%TO.N,GND*%
X160200000Y-52600000D03*
%TD*%
%TO.P,R2,1*%
%TO.N,/90*%
X174510000Y-75900000D03*
D11*
%TO.P,R2,2*%
%TO.N,/Direction sw C3*%
X166890000Y-75900000D03*
%TD*%
D10*
%TO.P,R3,1*%
%TO.N,/Yellow led*%
X168000000Y-72500000D03*
D11*
%TO.P,R3,2*%
%TO.N,Net-(Q1-Pad3)*%
X168000000Y-64880000D03*
%TD*%
D10*
%TO.P,C5,1*%
%TO.N,+12V*%
X177750000Y-65000000D03*
%TO.P,C5,2*%
%TO.N,-12V*%
X177750000Y-70000000D03*
%TD*%
%TO.P,R22,1*%
%TO.N,Net-(R19-Pad2)*%
X156810000Y-133100000D03*
D11*
%TO.P,R22,2*%
%TO.N,GND*%
X149190000Y-133100000D03*
%TD*%
D10*
%TO.P,R35,1*%
%TO.N,/Orange led*%
X151400000Y-60210000D03*
D11*
%TO.P,R35,2*%
%TO.N,Net-(Q4-Pad3)*%
X151400000Y-52590000D03*
%TD*%
D13*
%TO.P,U1,1*%
%TO.N,Net-(Q3-Pad1)*%
X167175000Y-139705000D03*
D14*
%TO.P,U1,2,DIODE_BIAS*%
%TO.N,unconnected-(U1-Pad2)*%
X167175000Y-137165000D03*
%TO.P,U1,3,+*%
%TO.N,Net-(R10-Pad1)*%
X167175000Y-134625000D03*
%TO.P,U1,4,-*%
%TO.N,Net-(R8-Pad1)*%
X167175000Y-132085000D03*
%TO.P,U1,5*%
%TO.N,Net-(C1-Pad1)*%
X167175000Y-129545000D03*
%TO.P,U1,6,V-*%
%TO.N,-12V*%
X167175000Y-127005000D03*
%TO.P,U1,7*%
%TO.N,unconnected-(U1-Pad7)*%
X167175000Y-124465000D03*
%TO.P,U1,8*%
%TO.N,unconnected-(U1-Pad8)*%
X167175000Y-121925000D03*
%TO.P,U1,9*%
%TO.N,unconnected-(U1-Pad9)*%
X159555000Y-121925000D03*
%TO.P,U1,10*%
%TO.N,unconnected-(U1-Pad10)*%
X159555000Y-124465000D03*
%TO.P,U1,11,V+*%
%TO.N,+12V*%
X159555000Y-127005000D03*
%TO.P,U1,12*%
%TO.N,Net-(C4-Pad1)*%
X159555000Y-129545000D03*
%TO.P,U1,13,-*%
%TO.N,Net-(R21-Pad1)*%
X159555000Y-132085000D03*
%TO.P,U1,14,+*%
%TO.N,Net-(R19-Pad2)*%
X159555000Y-134625000D03*
%TO.P,U1,15,DIODE_BIAS*%
%TO.N,unconnected-(U1-Pad15)*%
X159555000Y-137165000D03*
%TO.P,U1,16*%
%TO.N,Net-(Q3-Pad1)*%
X159555000Y-139705000D03*
%TD*%
D17*
%TO.P,D4,1,K*%
%TO.N,GND*%
X206075000Y-110050000D03*
D18*
%TO.P,D4,2,A*%
%TO.N,/Red led*%
X208615000Y-110050000D03*
%TD*%
D10*
%TO.P,R1,1*%
%TO.N,/Direction sw C3*%
X163750000Y-76310000D03*
D11*
%TO.P,R1,2*%
%TO.N,Net-(Q1-Pad2)*%
X163750000Y-68690000D03*
%TD*%
D10*
%TO.P,R14,1*%
%TO.N,+12V*%
X160440000Y-47000000D03*
D11*
%TO.P,R14,2*%
X168060000Y-47000000D03*
%TD*%
D10*
%TO.P,R9,1*%
%TO.N,Net-(R10-Pad1)*%
X170440000Y-134580000D03*
D11*
%TO.P,R9,2*%
%TO.N,GND*%
X178060000Y-134580000D03*
%TD*%
D10*
%TO.P,R4,1*%
%TO.N,/Rate WP*%
X149190000Y-140800000D03*
D11*
%TO.P,R4,2*%
%TO.N,Net-(Q2-Pad2)*%
X156810000Y-140800000D03*
%TD*%
D17*
%TO.P,D1,1,K*%
%TO.N,GND*%
X201510000Y-114700000D03*
D18*
%TO.P,D1,2,A*%
%TO.N,/Yellow led*%
X204050000Y-114700000D03*
%TD*%
D10*
%TO.P,R24,1*%
%TO.N,Net-(R24-Pad1)*%
X149100000Y-112900000D03*
D11*
%TO.P,R24,2*%
%TO.N,/Direction sw C1*%
X156720000Y-112900000D03*
%TD*%
D10*
%TO.P,R11,1*%
%TO.N,+12V*%
X156710000Y-121700000D03*
D11*
%TO.P,R11,2*%
%TO.N,Net-(Q2-Pad3)*%
X149090000Y-121700000D03*
%TD*%
D10*
%TO.P,R27,1*%
%TO.N,/Direction sw C4*%
X147900000Y-60210000D03*
D11*
%TO.P,R27,2*%
%TO.N,Net-(Q4-Pad2)*%
X147900000Y-52590000D03*
%TD*%
D10*
%TO.P,R23,1*%
%TO.N,Net-(R23-Pad1)*%
X177800000Y-109600000D03*
D11*
%TO.P,R23,2*%
%TO.N,Net-(R23-Pad2)*%
X170180000Y-109600000D03*
%TD*%
D15*
%TO.P,J6,S*%
%TO.N,GND*%
X205430000Y-127550000D03*
D16*
%TO.P,J6,T*%
%TO.N,/0*%
X194030000Y-127550000D03*
%TO.P,J6,TN*%
%TO.N,N/C*%
X202330000Y-127550000D03*
%TD*%
D10*
%TO.P,R25,1*%
%TO.N,Net-(R25-Pad1)*%
X177850000Y-113330000D03*
D11*
%TO.P,R25,2*%
%TO.N,Net-(R23-Pad1)*%
X170230000Y-113330000D03*
%TD*%
D23*
%TO.P,SW1,1,A*%
%TO.N,/Direction sw C3*%
X196792500Y-99850000D03*
D24*
%TO.P,SW1,2,B*%
%TO.N,/Direction sw C1*%
X199292500Y-99850000D03*
%TO.P,SW1,3,C*%
%TO.N,/Direction sw C4*%
X201792500Y-99850000D03*
%TO.P,SW1,4,A*%
X196792500Y-103150000D03*
%TO.P,SW1,5,B*%
%TO.N,/Direction sw C2*%
X199292500Y-103150000D03*
%TO.P,SW1,6,C*%
%TO.N,/Direction sw C3*%
X201792500Y-103150000D03*
%TD*%
D25*
%TO.P,J3,1,Pin_1*%
%TO.N,+12V*%
X173247500Y-47800000D03*
D26*
%TO.P,J3,2,Pin_2*%
X175787500Y-47800000D03*
%TO.P,J3,3,Pin_3*%
%TO.N,GND*%
X173247500Y-50340000D03*
%TO.P,J3,4,Pin_4*%
X175787500Y-50340000D03*
%TO.P,J3,5,Pin_5*%
X173247500Y-52880000D03*
%TO.P,J3,6,Pin_6*%
X175787500Y-52880000D03*
%TO.P,J3,7,Pin_7*%
X173247500Y-55420000D03*
%TO.P,J3,8,Pin_8*%
X175787500Y-55420000D03*
%TO.P,J3,9,Pin_9*%
%TO.N,-12V*%
X173247500Y-57960000D03*
%TO.P,J3,10,Pin_10*%
X175787500Y-57960000D03*
%TD*%
D10*
%TO.P,R10,1*%
%TO.N,Net-(R10-Pad1)*%
X149290000Y-104000000D03*
D11*
%TO.P,R10,2*%
%TO.N,/Output level1 Cw*%
X156910000Y-104000000D03*
%TD*%
D20*
%TO.P,Q2,1,C*%
%TO.N,GND*%
X157490000Y-145210000D03*
D21*
%TO.P,Q2,2,B*%
%TO.N,Net-(Q2-Pad2)*%
X157490000Y-146480000D03*
%TO.P,Q2,3,E*%
%TO.N,Net-(Q2-Pad3)*%
X157490000Y-147750000D03*
%TD*%
D27*
%TO.P,D3,1,K*%
%TO.N,Net-(D2-Pad1)*%
X146500000Y-70540000D03*
D28*
%TO.P,D3,2,A*%
%TO.N,/Output level1 Cw*%
X146500000Y-65460000D03*
%TD*%
D17*
%TO.P,D6,1,K*%
%TO.N,GND*%
X210675000Y-114700000D03*
D18*
%TO.P,D6,2,A*%
%TO.N,/Orange led*%
X213215000Y-114700000D03*
%TD*%
D29*
%TO.P,RV4,*%
%TO.N,*%
X201500000Y-50525000D03*
X211000000Y-50525000D03*
D17*
%TO.P,RV4,1,1*%
%TO.N,GND*%
X203750000Y-58025000D03*
D18*
%TO.P,RV4,2,2*%
%TO.N,/Output level1 WP*%
X206250000Y-58025000D03*
%TO.P,RV4,3,3*%
%TO.N,/Output level1 Cw*%
X208750000Y-58025000D03*
%TO.P,RV4,4,4*%
%TO.N,GND*%
X203750000Y-60525000D03*
%TO.P,RV4,5,5*%
%TO.N,/Output level2 WP*%
X206250000Y-60525000D03*
%TO.P,RV4,6,6*%
%TO.N,/Output level2 CW*%
X208750000Y-60525000D03*
%TD*%
D10*
%TO.P,R33,1*%
%TO.N,/Red led*%
X151000000Y-70310000D03*
D11*
%TO.P,R33,2*%
%TO.N,Net-(Q5-Pad3)*%
X151000000Y-62690000D03*
%TD*%
D29*
%TO.P,RV1,*%
%TO.N,*%
X194800000Y-84875000D03*
X204400000Y-84875000D03*
D17*
%TO.P,RV1,1,1*%
%TO.N,-12V*%
X197100000Y-92375000D03*
D18*
%TO.P,RV1,2,2*%
%TO.N,/Rate WP*%
X199600000Y-92375000D03*
%TO.P,RV1,3,3*%
%TO.N,+12V*%
X202100000Y-92375000D03*
%TD*%
D10*
%TO.P,R21,1*%
%TO.N,Net-(R21-Pad1)*%
X156810000Y-129500000D03*
D11*
%TO.P,R21,2*%
%TO.N,GND*%
X149190000Y-129500000D03*
%TD*%
D10*
%TO.P,R5,1*%
%TO.N,/FM level WP*%
X149190000Y-136700000D03*
D11*
%TO.P,R5,2*%
%TO.N,Net-(Q2-Pad2)*%
X156810000Y-136700000D03*
%TD*%
D10*
%TO.P,C7,1*%
%TO.N,+12V*%
X174750000Y-65000000D03*
%TO.P,C7,2*%
%TO.N,-12V*%
X174750000Y-70000000D03*
%TD*%
%TO.P,R26,1*%
%TO.N,/Direction sw C2*%
X156700000Y-116830000D03*
D11*
%TO.P,R26,2*%
%TO.N,Net-(R24-Pad1)*%
X149080000Y-116830000D03*
%TD*%
D27*
%TO.P,D2,1,K*%
%TO.N,Net-(D2-Pad1)*%
X146300000Y-75000000D03*
D28*
%TO.P,D2,2,A*%
%TO.N,Net-(D2-Pad2)*%
X151380000Y-75000000D03*
%TD*%
D20*
%TO.P,Q3,1,C*%
%TO.N,Net-(Q3-Pad1)*%
X153400000Y-147750000D03*
D21*
%TO.P,Q3,2,B*%
%TO.N,GND*%
X153400000Y-146480000D03*
%TO.P,Q3,3,E*%
%TO.N,Net-(Q2-Pad3)*%
X153400000Y-145210000D03*
%TD*%
D15*
%TO.P,J2,S*%
%TO.N,GND*%
X209370000Y-127600000D03*
D16*
%TO.P,J2,T*%
%TO.N,/90*%
X220770000Y-127600000D03*
%TO.P,J2,TN*%
%TO.N,N/C*%
X212470000Y-127600000D03*
%TD*%
D29*
%TO.P,RV2,*%
%TO.N,*%
X219100000Y-84875000D03*
X209500000Y-84875000D03*
D17*
%TO.P,RV2,1,1*%
%TO.N,Net-(J1-PadT)*%
X211800000Y-92375000D03*
D18*
%TO.P,RV2,2,2*%
%TO.N,/FM level WP*%
X214300000Y-92375000D03*
%TO.P,RV2,3,3*%
%TO.N,GND*%
X216800000Y-92375000D03*
%TD*%
D10*
%TO.P,C1,1*%
%TO.N,Net-(C1-Pad1)*%
X173000000Y-93800000D03*
%TO.P,C1,2*%
%TO.N,/Output level2 CW*%
X173000000Y-98800000D03*
%TD*%
D15*
%TO.P,J5,S*%
%TO.N,GND*%
X205480000Y-140850000D03*
D16*
%TO.P,J5,T*%
%TO.N,/180*%
X194080000Y-140850000D03*
%TO.P,J5,TN*%
%TO.N,N/C*%
X202380000Y-140850000D03*
%TD*%
D10*
%TO.P,R18,1*%
%TO.N,GND*%
X146500000Y-86810000D03*
D11*
%TO.P,R18,2*%
%TO.N,Net-(D2-Pad2)*%
X146500000Y-79190000D03*
%TD*%
D10*
%TO.P,R31,1*%
%TO.N,/180*%
X177850000Y-116830000D03*
D11*
%TO.P,R31,2*%
%TO.N,Net-(R25-Pad1)*%
X170230000Y-116830000D03*
%TD*%
D10*
%TO.P,R34,1*%
%TO.N,/Green led*%
X168000000Y-62560000D03*
D11*
%TO.P,R34,2*%
%TO.N,Net-(Q6-Pad3)*%
X168000000Y-54940000D03*
%TD*%
D10*
%TO.P,R16,1*%
%TO.N,Net-(R13-Pad2)*%
X158410000Y-90100000D03*
D11*
%TO.P,R16,2*%
%TO.N,Net-(D2-Pad2)*%
X150790000Y-90100000D03*
%TD*%
D10*
%TO.P,R17,1*%
%TO.N,Net-(R12-Pad2)*%
X154000000Y-86810000D03*
D11*
%TO.P,R17,2*%
%TO.N,Net-(R17-Pad2)*%
X154000000Y-79190000D03*
%TD*%
D10*
%TO.P,R20,1*%
%TO.N,Net-(R12-Pad2)*%
X152100000Y-93490000D03*
D11*
%TO.P,R20,2*%
%TO.N,/Output level1 Cw*%
X152100000Y-101110000D03*
%TD*%
D20*
%TO.P,Q6,1,C*%
%TO.N,+12V*%
X163110000Y-59770000D03*
D21*
%TO.P,Q6,2,B*%
%TO.N,Net-(Q6-Pad2)*%
X163110000Y-58500000D03*
%TO.P,Q6,3,E*%
%TO.N,Net-(Q6-Pad3)*%
X163110000Y-57230000D03*
%TD*%
D30*
%TO.P,J10,1,Pin_1*%
%TO.N,/270*%
X145900000Y-93700000D03*
D31*
%TO.P,J10,2,Pin_2*%
%TO.N,/Green led*%
X145900000Y-96240000D03*
%TO.P,J10,3,Pin_3*%
%TO.N,/Output level1 Cw*%
X145900000Y-98780000D03*
%TO.P,J10,4,Pin_4*%
%TO.N,/Output level1 WP*%
X145900000Y-101320000D03*
%TO.P,J10,5,Pin_5*%
%TO.N,/Output level2 WP*%
X145900000Y-103860000D03*
%TO.P,J10,6,Pin_6*%
%TO.N,/Red led*%
X145900000Y-106400000D03*
%TO.P,J10,7,Pin_7*%
%TO.N,/Orange led*%
X145900000Y-108940000D03*
%TO.P,J10,8,Pin_8*%
%TO.N,/FM level WP*%
X145900000Y-111480000D03*
%TO.P,J10,9,Pin_9*%
%TO.N,/Rate WP*%
X145900000Y-114020000D03*
%TD*%
D30*
%TO.P,J8,1,Pin_1*%
%TO.N,/Yellow led*%
X190800000Y-102750000D03*
D31*
%TO.P,J8,2,Pin_2*%
%TO.N,-12V*%
X190800000Y-100210000D03*
%TO.P,J8,3,Pin_3*%
%TO.N,+12V*%
X190800000Y-97670000D03*
%TO.P,J8,4,Pin_4*%
%TO.N,/Direction sw C1*%
X190800000Y-95130000D03*
%TO.P,J8,5,Pin_5*%
%TO.N,/Direction sw C2*%
X190800000Y-92590000D03*
%TO.P,J8,6,Pin_6*%
%TO.N,/Direction sw C3*%
X190800000Y-90050000D03*
%TO.P,J8,7,Pin_7*%
%TO.N,/Direction sw C4*%
X190800000Y-87510000D03*
%TO.P,J8,8,Pin_8*%
%TO.N,GND*%
X190800000Y-84970000D03*
%TO.P,J8,9,Pin_9*%
%TO.N,/0*%
X190800000Y-82430000D03*
%TO.P,J8,10,Pin_10*%
%TO.N,/90*%
X190800000Y-79890000D03*
%TO.P,J8,11,Pin_11*%
%TO.N,/180*%
X190800000Y-77350000D03*
%TO.P,J8,12,Pin_12*%
%TO.N,/Output level2 CW*%
X190800000Y-74810000D03*
%TD*%
D30*
%TO.P,J9,1,Pin_1*%
%TO.N,/270*%
X222450000Y-93800000D03*
D31*
%TO.P,J9,2,Pin_2*%
%TO.N,/Green led*%
X222450000Y-96340000D03*
%TO.P,J9,3,Pin_3*%
%TO.N,/Output level1 Cw*%
X222450000Y-98880000D03*
%TO.P,J9,4,Pin_4*%
%TO.N,/Output level1 WP*%
X222450000Y-101420000D03*
%TO.P,J9,5,Pin_5*%
%TO.N,/Output level2 WP*%
X222450000Y-103960000D03*
%TO.P,J9,6,Pin_6*%
%TO.N,/Red led*%
X222450000Y-106500000D03*
%TO.P,J9,7,Pin_7*%
%TO.N,/Orange led*%
X222450000Y-109040000D03*
%TO.P,J9,8,Pin_8*%
%TO.N,/FM level WP*%
X222450000Y-111580000D03*
%TO.P,J9,9,Pin_9*%
%TO.N,/Rate WP*%
X222450000Y-114120000D03*
%TD*%
D30*
%TO.P,J7,1,Pin_1*%
%TO.N,/Yellow led*%
X177500000Y-102660000D03*
D31*
%TO.P,J7,2,Pin_2*%
%TO.N,-12V*%
X177500000Y-100120000D03*
%TO.P,J7,3,Pin_3*%
%TO.N,+12V*%
X177500000Y-97580000D03*
%TO.P,J7,4,Pin_4*%
%TO.N,/Direction sw C1*%
X177500000Y-95040000D03*
%TO.P,J7,5,Pin_5*%
%TO.N,/Direction sw C2*%
X177500000Y-92500000D03*
%TO.P,J7,6,Pin_6*%
%TO.N,/Direction sw C3*%
X177500000Y-89960000D03*
%TO.P,J7,7,Pin_7*%
%TO.N,/Direction sw C4*%
X177500000Y-87420000D03*
%TO.P,J7,8,Pin_8*%
%TO.N,GND*%
X177500000Y-84880000D03*
%TO.P,J7,9,Pin_9*%
%TO.N,/0*%
X177500000Y-82340000D03*
%TO.P,J7,10,Pin_10*%
%TO.N,/90*%
X177500000Y-79800000D03*
%TO.P,J7,11,Pin_11*%
%TO.N,/180*%
X177500000Y-77260000D03*
%TO.P,J7,12,Pin_12*%
%TO.N,/Output level2 CW*%
X177500000Y-74720000D03*
%TD*%
D32*
%TO.N,/Yellow led*%
X178900000Y-72300000D03*
%TO.N,/Direction sw C3*%
X172300000Y-78700000D03*
%TO.N,Net-(R25-Pad1)*%
X171100000Y-101600000D03*
%TO.N,/Direction sw C1*%
X166300000Y-85000000D03*
%TD*%
D33*
%TO.N,Net-(Q5-Pad2)*%
X155000000Y-68690000D02*
X154800000Y-68490000D01*
X154800000Y-68490000D02*
X154800000Y-64790000D01*
X154800000Y-64790000D02*
X155110000Y-64480000D01*
X155110000Y-64480000D02*
X156110000Y-64480000D01*
D34*
%TO.N,-12V*%
X165050000Y-124780000D02*
X165050000Y-107550000D01*
X165050000Y-107550000D02*
X165294520Y-107305480D01*
X165294520Y-107305480D02*
X165575480Y-107305480D01*
%TO.N,+12V*%
X156710000Y-121700000D02*
X158010000Y-120400000D01*
X158010000Y-120400000D02*
X161400000Y-120400000D01*
X161400000Y-120400000D02*
X162100000Y-121100000D01*
X162100000Y-121100000D02*
X162100000Y-123600000D01*
X162030000Y-90260000D02*
X163800000Y-88490000D01*
X163800000Y-81400000D02*
X161400000Y-79000000D01*
X163800000Y-88490000D02*
X163800000Y-81400000D01*
X161400000Y-79000000D02*
X159250000Y-79000000D01*
%TO.N,-12V*%
X169650000Y-90260000D02*
X164600000Y-85210000D01*
X164600000Y-85210000D02*
X164600000Y-79350000D01*
X164600000Y-79350000D02*
X164250000Y-79000000D01*
D33*
%TO.N,/Direction sw C4*%
X156700000Y-45800000D02*
X156700000Y-50700000D01*
X151200000Y-49500000D02*
X147380000Y-49500000D01*
X173200000Y-83120000D02*
X173200000Y-75400000D01*
X156700000Y-50700000D02*
X155800000Y-51600000D01*
X173200000Y-75400000D02*
X177200000Y-71400000D01*
X177200000Y-71400000D02*
X178074980Y-71400000D01*
X178074980Y-71400000D02*
X179524520Y-69950460D01*
X159874511Y-42625489D02*
X156700000Y-45800000D01*
X177500000Y-87420000D02*
X173200000Y-83120000D01*
X179524520Y-69950460D02*
X179524520Y-48359540D01*
X179524520Y-48359540D02*
X173790469Y-42625489D01*
X151500000Y-49200000D02*
X151200000Y-49500000D01*
X173790469Y-42625489D02*
X159874511Y-42625489D01*
X155800000Y-51600000D02*
X153900000Y-51600000D01*
X153900000Y-51600000D02*
X151500000Y-49200000D01*
D34*
%TO.N,-12V*%
X179000000Y-61160000D02*
X175750000Y-57910000D01*
X179000000Y-66250000D02*
X179000000Y-61160000D01*
X177500000Y-70000000D02*
X175250000Y-70000000D01*
X164250000Y-79000000D02*
X168500000Y-79000000D01*
X175250000Y-70000000D02*
X179000000Y-66250000D01*
X168500000Y-79000000D02*
X177500000Y-70000000D01*
X168060000Y-43750000D02*
X173956247Y-43750000D01*
X173956247Y-43750000D02*
X177400000Y-47193753D01*
X177400000Y-47193753D02*
X177400000Y-56260000D01*
X177400000Y-56260000D02*
X175750000Y-57910000D01*
%TO.N,+12V*%
X178250000Y-65000000D02*
X175250000Y-65000000D01*
X175250000Y-65000000D02*
X171600000Y-61350000D01*
X171600000Y-61350000D02*
X171600000Y-49360000D01*
X171600000Y-49360000D02*
X173210000Y-47750000D01*
X159250000Y-79000000D02*
X159250000Y-78150000D01*
X159250000Y-78150000D02*
X160400000Y-77000000D01*
X158000000Y-65200000D02*
X158000000Y-65000000D01*
X160400000Y-77000000D02*
X160400000Y-67600000D01*
X160400000Y-67600000D02*
X158000000Y-65200000D01*
X159250000Y-62835000D02*
X159250000Y-63750000D01*
X159250000Y-63750000D02*
X157250000Y-65750000D01*
X157250000Y-65750000D02*
X156110000Y-65750000D01*
D33*
%TO.N,Net-(C1-Pad1)*%
X174124511Y-98334211D02*
X171130300Y-95340000D01*
X176325489Y-103834511D02*
X176325489Y-103125489D01*
X171130300Y-95340000D02*
X169650000Y-95340000D01*
X167175000Y-129545000D02*
X179300000Y-117420000D01*
X171190000Y-93800000D02*
X169650000Y-95340000D01*
X176325489Y-103125489D02*
X174124511Y-100924511D01*
X174124511Y-100924511D02*
X174124511Y-98334211D01*
X179300000Y-117420000D02*
X179300000Y-106100000D01*
X179300000Y-106100000D02*
X177034511Y-103834511D01*
X177034511Y-103834511D02*
X176325489Y-103834511D01*
X173000000Y-93800000D02*
X171190000Y-93800000D01*
%TO.N,/Output level2 CW*%
X209156721Y-56700000D02*
X209974511Y-57517790D01*
X190800000Y-66050000D02*
X200150000Y-56700000D01*
X170570000Y-98800000D02*
X169650000Y-97880000D01*
X190800000Y-74810000D02*
X190800000Y-66050000D01*
X209974511Y-59300489D02*
X208750000Y-60525000D01*
X209974511Y-57517790D02*
X209974511Y-59300489D01*
X200150000Y-56700000D02*
X209156721Y-56700000D01*
X173000000Y-98800000D02*
X170570000Y-98800000D01*
D34*
%TO.N,+12V*%
X162205000Y-65790000D02*
X163110000Y-65790000D01*
X164300000Y-92530000D02*
X162030000Y-90260000D01*
X162100000Y-106580000D02*
X161890000Y-106790000D01*
X162100000Y-124460000D02*
X162100000Y-123600000D01*
X158200000Y-54450000D02*
X159250000Y-55500000D01*
X159250000Y-59750000D02*
X159250000Y-62835000D01*
X172460000Y-47000000D02*
X173210000Y-47750000D01*
X159480000Y-109200000D02*
X161890000Y-106790000D01*
X173210000Y-47750000D02*
X175750000Y-47750000D01*
X159250000Y-58000000D02*
X161020000Y-59770000D01*
X160440000Y-50360000D02*
X158200000Y-52600000D01*
X159250000Y-55500000D02*
X159250000Y-58000000D01*
X159250000Y-58000000D02*
X157500000Y-59750000D01*
X160440000Y-47000000D02*
X160440000Y-50360000D01*
X159250000Y-58000000D02*
X159250000Y-59750000D01*
X168060000Y-47000000D02*
X172460000Y-47000000D01*
X159250000Y-62835000D02*
X162205000Y-65790000D01*
X164300000Y-104380000D02*
X164300000Y-92530000D01*
X159555000Y-127005000D02*
X162100000Y-124460000D01*
X161890000Y-106790000D02*
X164300000Y-104380000D01*
X161020000Y-59770000D02*
X163110000Y-59770000D01*
X162100000Y-123600000D02*
X162100000Y-106580000D01*
X157500000Y-59750000D02*
X156110000Y-59750000D01*
X159250000Y-59750000D02*
X159270000Y-59770000D01*
X158200000Y-52600000D02*
X158200000Y-54450000D01*
D33*
%TO.N,GND*%
X146500000Y-86810000D02*
X150000000Y-86810000D01*
X148640000Y-129890000D02*
X148630000Y-129880000D01*
D34*
%TO.N,-12V*%
X165300480Y-94609520D02*
X169650000Y-90260000D01*
X165050000Y-140880000D02*
X165050000Y-124780000D01*
X165050000Y-125080000D02*
X165050000Y-124780000D01*
X165800000Y-141630000D02*
X165050000Y-140880000D01*
X167100000Y-109200000D02*
X165575480Y-107675480D01*
X163755113Y-47065113D02*
X163755113Y-51600000D01*
D33*
X171060000Y-90260000D02*
X169650000Y-90260000D01*
D34*
X176950000Y-141630000D02*
X165800000Y-141630000D01*
X165575480Y-107675480D02*
X165575480Y-107305480D01*
X165250000Y-125080000D02*
X165050000Y-125080000D01*
X167175000Y-127005000D02*
X165250000Y-125080000D01*
D33*
X175875969Y-95075969D02*
X171060000Y-90260000D01*
X177500000Y-100120000D02*
X175875969Y-98495969D01*
D34*
X173210000Y-57910000D02*
X175750000Y-57910000D01*
D33*
X167100000Y-109200000D02*
X166970000Y-109200000D01*
D34*
X160440000Y-43750000D02*
X163755113Y-47065113D01*
D33*
X175875969Y-98495969D02*
X175875969Y-95075969D01*
D34*
X165300480Y-107030480D02*
X165300480Y-94609520D01*
X165575480Y-107305480D02*
X165300480Y-107030480D01*
D33*
%TO.N,Net-(C4-Pad1)*%
X155300000Y-95800000D02*
X161570000Y-95800000D01*
X157000000Y-97800000D02*
X159460000Y-95340000D01*
X150500000Y-102200000D02*
X150500000Y-100600000D01*
X153300000Y-97800000D02*
X157000000Y-97800000D01*
X157934511Y-124834511D02*
X155300000Y-122200000D01*
X159555000Y-129545000D02*
X157934511Y-127924511D01*
X161570000Y-95800000D02*
X162030000Y-95340000D01*
X157934511Y-127924511D02*
X157934511Y-124834511D01*
X155300000Y-107000000D02*
X150500000Y-102200000D01*
X150500000Y-100600000D02*
X153300000Y-97800000D01*
X155300000Y-122200000D02*
X155300000Y-107000000D01*
X159460000Y-95340000D02*
X162030000Y-95340000D01*
%TO.N,/Output level1 Cw*%
X207500000Y-61057699D02*
X207500000Y-59275000D01*
X221275489Y-97705489D02*
X221275489Y-74833188D01*
X222450000Y-98880000D02*
X221275489Y-97705489D01*
X155300000Y-100800000D02*
X158220000Y-97880000D01*
X158220000Y-97880000D02*
X162030000Y-97880000D01*
X156910000Y-104000000D02*
X154990000Y-104000000D01*
X207500000Y-59275000D02*
X208750000Y-58025000D01*
X152100000Y-101110000D02*
X154990000Y-101110000D01*
X154990000Y-104000000D02*
X152100000Y-101110000D01*
X154990000Y-101110000D02*
X155300000Y-100800000D01*
X221275489Y-74833188D02*
X207500000Y-61057699D01*
%TO.N,/Yellow led*%
X177500000Y-102660000D02*
X177740000Y-102660000D01*
X178900000Y-82078990D02*
X178900000Y-72300000D01*
X177740000Y-102660000D02*
X178900000Y-101500000D01*
X178900000Y-101500000D02*
X178900000Y-82078990D01*
%TO.N,Net-(D2-Pad1)*%
X145920000Y-71120000D02*
X146500000Y-70540000D01*
X145920000Y-74620000D02*
X145920000Y-71120000D01*
X146300000Y-75000000D02*
X145920000Y-74620000D01*
%TO.N,Net-(D2-Pad2)*%
X145375489Y-80314511D02*
X146500000Y-79190000D01*
X145375489Y-87275789D02*
X145375489Y-80314511D01*
X148199700Y-90100000D02*
X145375489Y-87275789D01*
X146500000Y-79190000D02*
X150690000Y-75000000D01*
X150790000Y-90100000D02*
X148199700Y-90100000D01*
X150690000Y-75000000D02*
X151380000Y-75000000D01*
%TO.N,/Red led*%
X144900000Y-87700000D02*
X144900000Y-79049022D01*
X147074511Y-89874511D02*
X144900000Y-87700000D01*
X147074511Y-105225489D02*
X147074511Y-89874511D01*
X151000000Y-72949022D02*
X151000000Y-70310000D01*
X144900000Y-79049022D02*
X151000000Y-72949022D01*
X145900000Y-106400000D02*
X147074511Y-105225489D01*
%TO.N,/Orange led*%
X152800000Y-76800000D02*
X152800000Y-67700000D01*
X149000000Y-63900000D02*
X149000000Y-62610000D01*
X149300000Y-77500000D02*
X152100000Y-77500000D01*
X151964282Y-90516018D02*
X151964282Y-88635718D01*
X145900000Y-108940000D02*
X147600000Y-107240000D01*
X148300000Y-78500000D02*
X149300000Y-77500000D01*
X151200000Y-82616018D02*
X148300000Y-79716018D01*
X149000000Y-62610000D02*
X151400000Y-60210000D01*
X151964282Y-88635718D02*
X151200000Y-87871436D01*
X151200000Y-87871436D02*
X151200000Y-82616018D01*
X148300000Y-79716018D02*
X148300000Y-78500000D01*
X152100000Y-77500000D02*
X152800000Y-76800000D01*
X152800000Y-67700000D02*
X149000000Y-63900000D01*
X147600000Y-107240000D02*
X147600000Y-94880300D01*
X147600000Y-94880300D02*
X151964282Y-90516018D01*
%TO.N,/90*%
X207800000Y-84000000D02*
X207800000Y-105800000D01*
X199556314Y-79890000D02*
X199666314Y-80000000D01*
X207800000Y-105800000D02*
X220770000Y-118770000D01*
X199666314Y-80000000D02*
X203800000Y-80000000D01*
X174510000Y-76810000D02*
X174510000Y-75900000D01*
X220770000Y-118770000D02*
X220770000Y-127600000D01*
X203800000Y-80000000D02*
X207800000Y-84000000D01*
X177500000Y-79800000D02*
X174510000Y-76810000D01*
X190800000Y-79890000D02*
X199556314Y-79890000D01*
%TO.N,/270*%
X223650000Y-137970000D02*
X223650000Y-95000000D01*
X220820000Y-140800000D02*
X223650000Y-137970000D01*
X147113803Y-47050480D02*
X152550480Y-47050480D01*
X145900000Y-90400000D02*
X144400000Y-88900000D01*
X152550480Y-47050480D02*
X155000000Y-49500000D01*
X145900000Y-93700000D02*
X145900000Y-90400000D01*
X223650000Y-95000000D02*
X222450000Y-93800000D01*
X144400000Y-49764283D02*
X147113803Y-47050480D01*
X144400000Y-88900000D02*
X144400000Y-49764283D01*
%TO.N,/180*%
X190800000Y-77350000D02*
X189000000Y-79150000D01*
X189000000Y-79150000D02*
X189000000Y-135770000D01*
X189000000Y-135770000D02*
X194080000Y-140850000D01*
%TO.N,/0*%
X194030000Y-127550000D02*
X192965000Y-126485000D01*
X192965000Y-126485000D02*
X192965000Y-84595000D01*
X192965000Y-84595000D02*
X190800000Y-82430000D01*
%TO.N,Net-(Q1-Pad2)*%
X164549999Y-65049999D02*
X164020000Y-64520000D01*
X163750000Y-68690000D02*
X164549999Y-67890001D01*
X164020000Y-64520000D02*
X163110000Y-64520000D01*
X164549999Y-67890001D02*
X164549999Y-65049999D01*
%TO.N,Net-(Q1-Pad3)*%
X166370000Y-63250000D02*
X163110000Y-63250000D01*
X168000000Y-64880000D02*
X166370000Y-63250000D01*
%TO.N,Net-(Q2-Pad2)*%
X164730000Y-144580000D02*
X164730000Y-148370000D01*
X157490000Y-146480000D02*
X162840000Y-146480000D01*
X156835978Y-146480000D02*
X156360000Y-146004022D01*
X156360000Y-146004022D02*
X156360000Y-141250000D01*
X164730000Y-148370000D02*
X164840000Y-148480000D01*
X157490000Y-146480000D02*
X156835978Y-146480000D01*
X162840000Y-146480000D02*
X164840000Y-148480000D01*
X156360000Y-141250000D02*
X156810000Y-140800000D01*
%TO.N,Net-(Q2-Pad3)*%
X153810000Y-145210000D02*
X153400000Y-145210000D01*
X150314511Y-146414511D02*
X152499511Y-148599511D01*
X154793598Y-145210000D02*
X153400000Y-145210000D01*
X154474520Y-148425480D02*
X154474520Y-145874520D01*
X154300489Y-148599511D02*
X154474520Y-148425480D01*
X150314511Y-122924511D02*
X150314511Y-146414511D01*
X154474520Y-145874520D02*
X153810000Y-145210000D01*
X157490000Y-147750000D02*
X157333598Y-147750000D01*
X152499511Y-148599511D02*
X154300489Y-148599511D01*
X149090000Y-121700000D02*
X150314511Y-122924511D01*
X157333598Y-147750000D02*
X154793598Y-145210000D01*
%TO.N,Net-(Q3-Pad1)*%
X152325480Y-143404520D02*
X156530000Y-139200000D01*
X159050000Y-139200000D02*
X159555000Y-139705000D01*
X153400000Y-147750000D02*
X153243598Y-147750000D01*
X152325480Y-146831882D02*
X152325480Y-143404520D01*
X153243598Y-147750000D02*
X152325480Y-146831882D01*
X156530000Y-139200000D02*
X159050000Y-139200000D01*
%TO.N,Net-(Q4-Pad2)*%
X147500000Y-52690000D02*
X153290000Y-58480000D01*
X153290000Y-58480000D02*
X156110000Y-58480000D01*
%TO.N,Net-(Q4-Pad3)*%
X155520000Y-57210000D02*
X156110000Y-57210000D01*
X151000000Y-52690000D02*
X155520000Y-57210000D01*
%TO.N,Net-(Q5-Pad3)*%
X151000000Y-62690000D02*
X155590000Y-62690000D01*
X155590000Y-62690000D02*
X156110000Y-63210000D01*
%TO.N,Net-(Q6-Pad2)*%
X166191370Y-58500000D02*
X163110000Y-58500000D01*
X171500000Y-64940000D02*
X171500000Y-63808630D01*
X171500000Y-63808630D02*
X166191370Y-58500000D01*
%TO.N,Net-(Q6-Pad3)*%
X165400000Y-54940000D02*
X163110000Y-57230000D01*
X168000000Y-54940000D02*
X165400000Y-54940000D01*
%TO.N,/Direction sw C3*%
X196792500Y-99850000D02*
X195767989Y-100874511D01*
X195767989Y-103667989D02*
X196300000Y-104200000D01*
X200742500Y-104200000D02*
X201792500Y-103150000D01*
X172300000Y-78700000D02*
X172300000Y-84760000D01*
X172300000Y-84760000D02*
X177500000Y-89960000D01*
X195767989Y-100874511D02*
X195767989Y-103667989D01*
X196300000Y-104200000D02*
X200742500Y-104200000D01*
%TO.N,/Rate WP*%
X220139511Y-128989511D02*
X202850000Y-111700000D01*
X144900000Y-115020000D02*
X145900000Y-114020000D01*
X144900000Y-138200000D02*
X144900000Y-115020000D01*
X202850000Y-95625000D02*
X199600000Y-92375000D01*
X222450000Y-114120000D02*
X222450000Y-127885066D01*
X202850000Y-111700000D02*
X202850000Y-95625000D01*
X149190000Y-140800000D02*
X147500000Y-140800000D01*
X222450000Y-127885066D02*
X221345555Y-128989511D01*
X221345555Y-128989511D02*
X220139511Y-128989511D01*
X147500000Y-140800000D02*
X144900000Y-138200000D01*
%TO.N,Net-(R6-Pad1)*%
X176540000Y-144580000D02*
X176950000Y-144170000D01*
X172760000Y-144170000D02*
X172350000Y-144580000D01*
X176950000Y-144170000D02*
X172760000Y-144170000D01*
%TO.N,Net-(R8-Pad1)*%
X170540000Y-130880000D02*
X168380000Y-130880000D01*
X168380000Y-130880000D02*
X167175000Y-132085000D01*
%TO.N,Net-(R10-Pad1)*%
X167220000Y-134580000D02*
X167175000Y-134625000D01*
X170440000Y-134580000D02*
X167220000Y-134580000D01*
%TO.N,Net-(R12-Pad2)*%
X156120000Y-84880000D02*
X158130000Y-84880000D01*
X154190000Y-86810000D02*
X156120000Y-84880000D01*
X155630000Y-85180000D02*
X154000000Y-86810000D01*
X159750000Y-83260000D02*
X158130000Y-84880000D01*
X157950001Y-77109999D02*
X157950001Y-79510979D01*
X158750000Y-76310000D02*
X157950001Y-77109999D01*
X159750000Y-81310978D02*
X159750000Y-83260000D01*
X157950001Y-79510979D02*
X159750000Y-81310978D01*
X154000000Y-86810000D02*
X154190000Y-86810000D01*
X162030000Y-85180000D02*
X155630000Y-85180000D01*
%TO.N,Net-(R13-Pad2)*%
X152500000Y-82644582D02*
X152500000Y-87100000D01*
X151900000Y-81090000D02*
X151900000Y-82044582D01*
X159650000Y-90100000D02*
X158410000Y-90100000D01*
X151900000Y-82044582D02*
X152500000Y-82644582D01*
X162030000Y-87720000D02*
X159650000Y-90100000D01*
X150000000Y-79190000D02*
X151900000Y-81090000D01*
X155500000Y-90100000D02*
X158410000Y-90100000D01*
X152500000Y-87100000D02*
X155500000Y-90100000D01*
%TO.N,Net-(R17-Pad2)*%
X148875489Y-78724211D02*
X149534211Y-78065489D01*
X151400000Y-116400000D02*
X151400000Y-103735718D01*
X147965489Y-124175489D02*
X147965489Y-119834511D01*
X154250480Y-92929820D02*
X154250480Y-90286198D01*
X152875489Y-78065489D02*
X154000000Y-79190000D01*
X150000000Y-97180300D02*
X154250480Y-92929820D01*
X152000000Y-82780300D02*
X148875489Y-79655789D01*
X148875489Y-79655789D02*
X148875489Y-78724211D01*
X151400000Y-103735718D02*
X150000000Y-102335718D01*
X154250480Y-90286198D02*
X152000000Y-88035718D01*
X147965489Y-119834511D02*
X151400000Y-116400000D01*
X149534211Y-78065489D02*
X152875489Y-78065489D01*
X152000000Y-88035718D02*
X152000000Y-82780300D01*
X150000000Y-102335718D02*
X150000000Y-97180300D01*
X149190000Y-125400000D02*
X147965489Y-124175489D01*
%TO.N,Net-(R19-Pad2)*%
X158030000Y-133100000D02*
X159555000Y-134625000D01*
X156810000Y-125400000D02*
X155685489Y-126524511D01*
X156810000Y-133100000D02*
X158030000Y-133100000D01*
X155685489Y-126524511D02*
X155685489Y-131975489D01*
X155685489Y-131975489D02*
X156810000Y-133100000D01*
%TO.N,Net-(R21-Pad1)*%
X158455000Y-132085000D02*
X159555000Y-132085000D01*
X156810000Y-129500000D02*
X159395000Y-132085000D01*
X159395000Y-132085000D02*
X159555000Y-132085000D01*
%TO.N,Net-(R23-Pad1)*%
X168050000Y-113330000D02*
X167100000Y-114280000D01*
X170230000Y-113330000D02*
X168050000Y-113330000D01*
X177800000Y-109600000D02*
X173960000Y-109600000D01*
X173960000Y-109600000D02*
X170230000Y-113330000D01*
%TO.N,Net-(R23-Pad2)*%
X167140000Y-104080000D02*
X167100000Y-104120000D01*
X170230000Y-106250000D02*
X170230000Y-109550000D01*
X167100000Y-101580000D02*
X167100000Y-104120000D01*
X170230000Y-109550000D02*
X170180000Y-109600000D01*
X170180000Y-106200000D02*
X168060000Y-104080000D01*
X168060000Y-104080000D02*
X167140000Y-104080000D01*
X170180000Y-106200000D02*
X170230000Y-106250000D01*
%TO.N,Net-(R24-Pad1)*%
X149080000Y-116830000D02*
X149080000Y-116540000D01*
%TO.N,Net-(R25-Pad1)*%
X170230000Y-116830000D02*
X167110000Y-116830000D01*
X167110000Y-116830000D02*
X167100000Y-116820000D01*
X166435000Y-112864520D02*
X165575480Y-113724040D01*
X165575480Y-115295480D02*
X167100000Y-116820000D01*
X171304511Y-101804511D02*
X171304511Y-110065789D01*
X171304511Y-110065789D02*
X168505780Y-112864520D01*
X165575480Y-113724040D02*
X165575480Y-115295480D01*
X168505780Y-112864520D02*
X166435000Y-112864520D01*
X177850000Y-113330000D02*
X173730000Y-113330000D01*
X171100000Y-101600000D02*
X171304511Y-101804511D01*
X173730000Y-113330000D02*
X170230000Y-116830000D01*
%TO.N,/FM level WP*%
X219500000Y-97575000D02*
X219500000Y-108630000D01*
X149190000Y-136700000D02*
X147515969Y-135025969D01*
X147515969Y-135025969D02*
X147515969Y-113095969D01*
X214300000Y-92375000D02*
X219500000Y-97575000D01*
X219500000Y-108630000D02*
X222450000Y-111580000D01*
X147515969Y-113095969D02*
X145900000Y-111480000D01*
%TO.N,/Direction sw C4*%
X201792500Y-99850000D02*
X200767989Y-100874511D01*
X200767989Y-100874511D02*
X199067989Y-100874511D01*
X146300000Y-58610000D02*
X147900000Y-60210000D01*
X147380000Y-49500000D02*
X146300000Y-50580000D01*
X146300000Y-50580000D02*
X146300000Y-58610000D01*
X199067989Y-100874511D02*
X196792500Y-103150000D01*
%TO.N,/Direction sw C2*%
X159470000Y-116830000D02*
X159480000Y-116820000D01*
X156700000Y-116830000D02*
X159470000Y-116830000D01*
%TO.N,/Direction sw C1*%
X159480000Y-101580000D02*
X159480000Y-104120000D01*
X156720000Y-106880000D02*
X159480000Y-104120000D01*
X176325489Y-92325489D02*
X170437141Y-86437141D01*
X177500000Y-95040000D02*
X176325489Y-93865489D01*
X156720000Y-112900000D02*
X156720000Y-106880000D01*
X167737141Y-86437141D02*
X166300000Y-85000000D01*
X176325489Y-93865489D02*
X176325489Y-92325489D01*
X170437141Y-86437141D02*
X167737141Y-86437141D01*
%TO.N,/Output level2 WP*%
X218024511Y-95424511D02*
X218024511Y-86524511D01*
X221275489Y-98675489D02*
X218024511Y-95424511D01*
X221275489Y-102785489D02*
X221275489Y-98675489D01*
X222450000Y-103960000D02*
X221275489Y-102785489D01*
X218024511Y-86524511D02*
X206250000Y-74750000D01*
X206250000Y-74750000D02*
X206250000Y-60525000D01*
%TO.N,Net-(J1-PadT)*%
X215650000Y-97730000D02*
X211800000Y-93880000D01*
X211800000Y-93880000D02*
X211800000Y-92375000D01*
%TD*%
M02*
