%TF.GenerationSoftware,KiCad,Pcbnew,(6.0.11-0)*%
%TF.CreationDate,2023-05-04T11:01:33+02:00*%
%TF.ProjectId,FrontPanel-4lfo1,46726f6e-7450-4616-9e65-6c2d346c666f,rev?*%
%TF.SameCoordinates,Original*%
%TF.FileFunction,Legend,Bot*%
%TF.FilePolarity,Positive*%
%FSLAX46Y46*%
G04 Gerber Fmt 4.6, Leading zero omitted, Abs format (unit mm)*
G04 Created by KiCad (PCBNEW (6.0.11-0)) date 2023-05-04 11:01:33*
%MOMM*%
%LPD*%
G01*
G04 APERTURE LIST*
%ADD10C,0.150000*%
G04 APERTURE END LIST*
D10*
X97869047Y-156852380D02*
X97869047Y-157566666D01*
X97916666Y-157709523D01*
X98011904Y-157804761D01*
X98154761Y-157852380D01*
X98250000Y-157852380D01*
X96916666Y-157852380D02*
X97392857Y-157852380D01*
X97392857Y-156852380D01*
X96011904Y-157757142D02*
X96059523Y-157804761D01*
X96202380Y-157852380D01*
X96297619Y-157852380D01*
X96440476Y-157804761D01*
X96535714Y-157709523D01*
X96583333Y-157614285D01*
X96630952Y-157423809D01*
X96630952Y-157280952D01*
X96583333Y-157090476D01*
X96535714Y-156995238D01*
X96440476Y-156900000D01*
X96297619Y-156852380D01*
X96202380Y-156852380D01*
X96059523Y-156900000D01*
X96011904Y-156947619D01*
X95297619Y-156852380D02*
X95297619Y-157566666D01*
X95345238Y-157709523D01*
X95440476Y-157804761D01*
X95583333Y-157852380D01*
X95678571Y-157852380D01*
X94345238Y-157852380D02*
X94821428Y-157852380D01*
X94821428Y-156852380D01*
X93440476Y-157757142D02*
X93488095Y-157804761D01*
X93630952Y-157852380D01*
X93726190Y-157852380D01*
X93869047Y-157804761D01*
X93964285Y-157709523D01*
X94011904Y-157614285D01*
X94059523Y-157423809D01*
X94059523Y-157280952D01*
X94011904Y-157090476D01*
X93964285Y-156995238D01*
X93869047Y-156900000D01*
X93726190Y-156852380D01*
X93630952Y-156852380D01*
X93488095Y-156900000D01*
X93440476Y-156947619D01*
X92726190Y-156852380D02*
X92726190Y-157566666D01*
X92773809Y-157709523D01*
X92869047Y-157804761D01*
X93011904Y-157852380D01*
X93107142Y-157852380D01*
X91773809Y-157852380D02*
X92250000Y-157852380D01*
X92250000Y-156852380D01*
X90869047Y-157757142D02*
X90916666Y-157804761D01*
X91059523Y-157852380D01*
X91154761Y-157852380D01*
X91297619Y-157804761D01*
X91392857Y-157709523D01*
X91440476Y-157614285D01*
X91488095Y-157423809D01*
X91488095Y-157280952D01*
X91440476Y-157090476D01*
X91392857Y-156995238D01*
X91297619Y-156900000D01*
X91154761Y-156852380D01*
X91059523Y-156852380D01*
X90916666Y-156900000D01*
X90869047Y-156947619D01*
X90154761Y-156852380D02*
X90154761Y-157566666D01*
X90202380Y-157709523D01*
X90297619Y-157804761D01*
X90440476Y-157852380D01*
X90535714Y-157852380D01*
X89202380Y-157852380D02*
X89678571Y-157852380D01*
X89678571Y-156852380D01*
X88297619Y-157757142D02*
X88345238Y-157804761D01*
X88488095Y-157852380D01*
X88583333Y-157852380D01*
X88726190Y-157804761D01*
X88821428Y-157709523D01*
X88869047Y-157614285D01*
X88916666Y-157423809D01*
X88916666Y-157280952D01*
X88869047Y-157090476D01*
X88821428Y-156995238D01*
X88726190Y-156900000D01*
X88583333Y-156852380D01*
X88488095Y-156852380D01*
X88345238Y-156900000D01*
X88297619Y-156947619D01*
%LPC*%
M02*
