%TF.GenerationSoftware,KiCad,Pcbnew,(6.0.11-0)*%
%TF.CreationDate,2023-05-04T11:01:34+02:00*%
%TF.ProjectId,FrontPanel-4lfo1,46726f6e-7450-4616-9e65-6c2d346c666f,rev?*%
%TF.SameCoordinates,Original*%
%TF.FileFunction,Profile,NP*%
%FSLAX46Y46*%
G04 Gerber Fmt 4.6, Leading zero omitted, Abs format (unit mm)*
G04 Created by KiCad (PCBNEW (6.0.11-0)) date 2023-05-04 11:01:34*
%MOMM*%
%LPD*%
G01*
G04 APERTURE LIST*
%TA.AperFunction,Profile*%
%ADD10C,0.200000*%
%TD*%
G04 APERTURE END LIST*
D10*
X103250000Y-75400000D02*
G75*
G03*
X103250000Y-75400000I-3500000J0D01*
G01*
X86225000Y-142200000D02*
G75*
G03*
X86225000Y-142200000I-3000000J0D01*
G01*
X87750000Y-105650000D02*
G75*
G03*
X87750000Y-105650000I-1500000J0D01*
G01*
X76368999Y-34267000D02*
G75*
G03*
X76368999Y-36233000I2781001J-983000D01*
G01*
X80987997Y-36899999D02*
G75*
G03*
X81930997Y-36233000I3J1000099D01*
G01*
X112000000Y-32250000D02*
X112000000Y-160650000D01*
X103675000Y-142225000D02*
G75*
G03*
X103675000Y-142225000I-3000000J0D01*
G01*
X81931024Y-34266991D02*
G75*
G03*
X80987997Y-33600000I-942924J-333009D01*
G01*
X81931001Y-158633000D02*
G75*
G03*
X81931001Y-156667000I-2781001J983000D01*
G01*
X76369039Y-36232987D02*
G75*
G03*
X77312003Y-36900000I942861J332887D01*
G01*
X77400001Y-155999991D02*
G75*
G03*
X76369003Y-156667000I-83201J-1001709D01*
G01*
X76369039Y-158632987D02*
G75*
G03*
X77312003Y-159300000I942861J332887D01*
G01*
X77312000Y-159300000D02*
X80987997Y-159300000D01*
X93250000Y-100650000D02*
G75*
G03*
X93250000Y-100650000I-1500000J0D01*
G01*
X80988000Y-156000000D02*
X77400000Y-156000000D01*
X98750000Y-105650000D02*
G75*
G03*
X98750000Y-105650000I-1500000J0D01*
G01*
X112000000Y-160650000D02*
X71700000Y-160650000D01*
X81931001Y-36233000D02*
G75*
G03*
X81931001Y-34267000I-2781001J983000D01*
G01*
X94850000Y-91250000D02*
G75*
G03*
X94850000Y-91250000I-3000000J0D01*
G01*
X87750000Y-75400000D02*
G75*
G03*
X87750000Y-75400000I-3500000J0D01*
G01*
X77312000Y-36900000D02*
X80988000Y-36900000D01*
X80987997Y-159299999D02*
G75*
G03*
X81930997Y-158633000I3J1000099D01*
G01*
X103625000Y-131125000D02*
G75*
G03*
X103625000Y-131125000I-3000000J0D01*
G01*
X80988000Y-33600000D02*
X77312000Y-33600000D01*
X81931024Y-156666991D02*
G75*
G03*
X80987997Y-156000000I-942924J-333009D01*
G01*
X86250000Y-131150000D02*
G75*
G03*
X86250000Y-131150000I-3000000J0D01*
G01*
X76368999Y-156667000D02*
G75*
G03*
X76368999Y-158633000I2781001J-983000D01*
G01*
X77312003Y-33600001D02*
G75*
G03*
X76369003Y-34267000I-3J-1000099D01*
G01*
X95200000Y-50625000D02*
G75*
G03*
X95200000Y-50625000I-3500000J0D01*
G01*
X71700000Y-32250000D02*
X112000000Y-32250000D01*
X103700000Y-120100000D02*
G75*
G03*
X103700000Y-120100000I-3000000J0D01*
G01*
X93250000Y-110900000D02*
G75*
G03*
X93250000Y-110900000I-1500000J0D01*
G01*
X71700000Y-160650000D02*
X71700000Y-32250000D01*
M02*
