%TF.GenerationSoftware,KiCad,Pcbnew,(6.0.11-0)*%
%TF.CreationDate,2023-05-04T11:01:33+02:00*%
%TF.ProjectId,FrontPanel-4lfo1,46726f6e-7450-4616-9e65-6c2d346c666f,rev?*%
%TF.SameCoordinates,Original*%
%TF.FileFunction,Legend,Top*%
%TF.FilePolarity,Positive*%
%FSLAX46Y46*%
G04 Gerber Fmt 4.6, Leading zero omitted, Abs format (unit mm)*
G04 Created by KiCad (PCBNEW (6.0.11-0)) date 2023-05-04 11:01:33*
%MOMM*%
%LPD*%
G01*
G04 APERTURE LIST*
%ADD10C,0.300000*%
%ADD11C,0.400000*%
%ADD12C,0.150000*%
%ADD13C,0.500000*%
G04 APERTURE END LIST*
D10*
X110800000Y-154450000D02*
X110800000Y-40950000D01*
D11*
X96600000Y-127100000D02*
X104600000Y-127100000D01*
X104600000Y-127100000D02*
X104600000Y-135100000D01*
X104600000Y-135100000D02*
X96600000Y-135100000D01*
X96600000Y-135100000D02*
X96600000Y-127100000D01*
D10*
X110800000Y-40950000D02*
X109800000Y-40950000D01*
D12*
X92893140Y-95760315D02*
X92393140Y-95360315D01*
X87234423Y-107283598D02*
G75*
G03*
X90057363Y-110272867I4649577J1563298D01*
G01*
X92905538Y-95660314D02*
G75*
G03*
X91014836Y-95560315I-956838J-167186D01*
G01*
X91115011Y-96058453D02*
X91572748Y-96650000D01*
D10*
X72800000Y-40450000D02*
X75300000Y-40450000D01*
X72800000Y-154450000D02*
X110800000Y-154450000D01*
D12*
X91115011Y-96058453D02*
X90628304Y-96660315D01*
X93309114Y-110274864D02*
G75*
G03*
X96134465Y-107283584I-1409814J4161564D01*
G01*
X96106449Y-104374184D02*
G75*
G03*
X93257363Y-101572867I-4348949J-1573616D01*
G01*
X91114935Y-96058438D02*
G75*
G03*
X93000000Y-96150000I935665J-187162D01*
G01*
D10*
X72800000Y-40450000D02*
X72800000Y-154450000D01*
D12*
X92893140Y-95760315D02*
X93193140Y-95160315D01*
X90105963Y-101638746D02*
G75*
G03*
X87457363Y-104272867I1651437J-4309154D01*
G01*
D11*
X79250000Y-127200000D02*
X87250000Y-127200000D01*
X87250000Y-127200000D02*
X87250000Y-135200000D01*
X87250000Y-135200000D02*
X79250000Y-135200000D01*
X79250000Y-135200000D02*
X79250000Y-127200000D01*
X96600000Y-138200000D02*
X104600000Y-138200000D01*
X104600000Y-138200000D02*
X104600000Y-146200000D01*
X104600000Y-146200000D02*
X96600000Y-146200000D01*
X96600000Y-146200000D02*
X96600000Y-138200000D01*
X79200000Y-138200000D02*
X87200000Y-138200000D01*
X87200000Y-138200000D02*
X87200000Y-146200000D01*
X87200000Y-146200000D02*
X79200000Y-146200000D01*
X79200000Y-146200000D02*
X79200000Y-138200000D01*
X82380952Y-84169047D02*
X81814285Y-83359523D01*
X81409523Y-84169047D02*
X81409523Y-82469047D01*
X82057142Y-82469047D01*
X82219047Y-82550000D01*
X82300000Y-82630952D01*
X82380952Y-82792857D01*
X82380952Y-83035714D01*
X82300000Y-83197619D01*
X82219047Y-83278571D01*
X82057142Y-83359523D01*
X81409523Y-83359523D01*
X83028571Y-83683333D02*
X83838095Y-83683333D01*
X82866666Y-84169047D02*
X83433333Y-82469047D01*
X84000000Y-84169047D01*
X84323809Y-82469047D02*
X85295238Y-82469047D01*
X84809523Y-84169047D02*
X84809523Y-82469047D01*
X85861904Y-83278571D02*
X86428571Y-83278571D01*
X86671428Y-84169047D02*
X85861904Y-84169047D01*
X85861904Y-82469047D01*
X86671428Y-82469047D01*
X87761904Y-58600547D02*
X88085714Y-58600547D01*
X88247619Y-58681500D01*
X88409523Y-58843404D01*
X88490476Y-59167214D01*
X88490476Y-59733880D01*
X88409523Y-60057690D01*
X88247619Y-60219595D01*
X88085714Y-60300547D01*
X87761904Y-60300547D01*
X87600000Y-60219595D01*
X87438095Y-60057690D01*
X87357142Y-59733880D01*
X87357142Y-59167214D01*
X87438095Y-58843404D01*
X87600000Y-58681500D01*
X87761904Y-58600547D01*
X89219047Y-58600547D02*
X89219047Y-59976738D01*
X89300000Y-60138642D01*
X89380952Y-60219595D01*
X89542857Y-60300547D01*
X89866666Y-60300547D01*
X90028571Y-60219595D01*
X90109523Y-60138642D01*
X90190476Y-59976738D01*
X90190476Y-58600547D01*
X90757142Y-58600547D02*
X91728571Y-58600547D01*
X91242857Y-60300547D02*
X91242857Y-58600547D01*
X92295238Y-60300547D02*
X92295238Y-58600547D01*
X92942857Y-58600547D01*
X93104761Y-58681500D01*
X93185714Y-58762452D01*
X93266666Y-58924357D01*
X93266666Y-59167214D01*
X93185714Y-59329119D01*
X93104761Y-59410071D01*
X92942857Y-59491023D01*
X92295238Y-59491023D01*
X93995238Y-58600547D02*
X93995238Y-59976738D01*
X94076190Y-60138642D01*
X94157142Y-60219595D01*
X94319047Y-60300547D01*
X94642857Y-60300547D01*
X94804761Y-60219595D01*
X94885714Y-60138642D01*
X94966666Y-59976738D01*
X94966666Y-58600547D01*
X95533333Y-58600547D02*
X96504761Y-58600547D01*
X96019047Y-60300547D02*
X96019047Y-58600547D01*
X89421428Y-63037547D02*
X88611904Y-63037547D01*
X88611904Y-61337547D01*
X89988095Y-62147071D02*
X90554761Y-62147071D01*
X90797619Y-63037547D02*
X89988095Y-63037547D01*
X89988095Y-61337547D01*
X90797619Y-61337547D01*
X91283333Y-61337547D02*
X91850000Y-63037547D01*
X92416666Y-61337547D01*
X92983333Y-62147071D02*
X93550000Y-62147071D01*
X93792857Y-63037547D02*
X92983333Y-63037547D01*
X92983333Y-61337547D01*
X93792857Y-61337547D01*
X95330952Y-63037547D02*
X94521428Y-63037547D01*
X94521428Y-61337547D01*
D10*
X98450000Y-115435714D02*
X98378571Y-115507142D01*
X98164285Y-115578571D01*
X98021428Y-115578571D01*
X97807142Y-115507142D01*
X97664285Y-115364285D01*
X97592857Y-115221428D01*
X97521428Y-114935714D01*
X97521428Y-114721428D01*
X97592857Y-114435714D01*
X97664285Y-114292857D01*
X97807142Y-114150000D01*
X98021428Y-114078571D01*
X98164285Y-114078571D01*
X98378571Y-114150000D01*
X98450000Y-114221428D01*
X98878571Y-114078571D02*
X99378571Y-115578571D01*
X99878571Y-114078571D01*
X102021428Y-114792857D02*
X101521428Y-114792857D01*
X101521428Y-115578571D02*
X101521428Y-114078571D01*
X102235714Y-114078571D01*
X102807142Y-115578571D02*
X102807142Y-114078571D01*
X103307142Y-115150000D01*
X103807142Y-114078571D01*
X103807142Y-115578571D01*
X99828571Y-126578571D02*
X100114285Y-126578571D01*
X100257142Y-126507142D01*
X100328571Y-126435714D01*
X100471428Y-126221428D01*
X100542857Y-125935714D01*
X100542857Y-125364285D01*
X100471428Y-125221428D01*
X100400000Y-125150000D01*
X100257142Y-125078571D01*
X99971428Y-125078571D01*
X99828571Y-125150000D01*
X99757142Y-125221428D01*
X99685714Y-125364285D01*
X99685714Y-125721428D01*
X99757142Y-125864285D01*
X99828571Y-125935714D01*
X99971428Y-126007142D01*
X100257142Y-126007142D01*
X100400000Y-125935714D01*
X100471428Y-125864285D01*
X100542857Y-125721428D01*
X101471428Y-125078571D02*
X101614285Y-125078571D01*
X101757142Y-125150000D01*
X101828571Y-125221428D01*
X101900000Y-125364285D01*
X101971428Y-125650000D01*
X101971428Y-126007142D01*
X101900000Y-126292857D01*
X101828571Y-126435714D01*
X101757142Y-126507142D01*
X101614285Y-126578571D01*
X101471428Y-126578571D01*
X101328571Y-126507142D01*
X101257142Y-126435714D01*
X101185714Y-126292857D01*
X101114285Y-126007142D01*
X101114285Y-125650000D01*
X101185714Y-125364285D01*
X101257142Y-125221428D01*
X101328571Y-125150000D01*
X101471428Y-125078571D01*
X102828571Y-125078571D02*
X102685714Y-125150000D01*
X102614285Y-125292857D01*
X102685714Y-125435714D01*
X102828571Y-125507142D01*
X102971428Y-125435714D01*
X103042857Y-125292857D01*
X102971428Y-125150000D01*
X102828571Y-125078571D01*
X82228571Y-137578571D02*
X81371428Y-137578571D01*
X81800000Y-137578571D02*
X81800000Y-136078571D01*
X81657142Y-136292857D01*
X81514285Y-136435714D01*
X81371428Y-136507142D01*
X83085714Y-136721428D02*
X82942857Y-136650000D01*
X82871428Y-136578571D01*
X82800000Y-136435714D01*
X82800000Y-136364285D01*
X82871428Y-136221428D01*
X82942857Y-136150000D01*
X83085714Y-136078571D01*
X83371428Y-136078571D01*
X83514285Y-136150000D01*
X83585714Y-136221428D01*
X83657142Y-136364285D01*
X83657142Y-136435714D01*
X83585714Y-136578571D01*
X83514285Y-136650000D01*
X83371428Y-136721428D01*
X83085714Y-136721428D01*
X82942857Y-136792857D01*
X82871428Y-136864285D01*
X82800000Y-137007142D01*
X82800000Y-137292857D01*
X82871428Y-137435714D01*
X82942857Y-137507142D01*
X83085714Y-137578571D01*
X83371428Y-137578571D01*
X83514285Y-137507142D01*
X83585714Y-137435714D01*
X83657142Y-137292857D01*
X83657142Y-137007142D01*
X83585714Y-136864285D01*
X83514285Y-136792857D01*
X83371428Y-136721428D01*
X84585714Y-136078571D02*
X84728571Y-136078571D01*
X84871428Y-136150000D01*
X84942857Y-136221428D01*
X85014285Y-136364285D01*
X85085714Y-136650000D01*
X85085714Y-137007142D01*
X85014285Y-137292857D01*
X84942857Y-137435714D01*
X84871428Y-137507142D01*
X84728571Y-137578571D01*
X84585714Y-137578571D01*
X84442857Y-137507142D01*
X84371428Y-137435714D01*
X84300000Y-137292857D01*
X84228571Y-137007142D01*
X84228571Y-136650000D01*
X84300000Y-136364285D01*
X84371428Y-136221428D01*
X84442857Y-136150000D01*
X84585714Y-136078571D01*
X85942857Y-136078571D02*
X85800000Y-136150000D01*
X85728571Y-136292857D01*
X85800000Y-136435714D01*
X85942857Y-136507142D01*
X86085714Y-136435714D01*
X86157142Y-136292857D01*
X86085714Y-136150000D01*
X85942857Y-136078571D01*
X83307142Y-125078571D02*
X83450000Y-125078571D01*
X83592857Y-125150000D01*
X83664285Y-125221428D01*
X83735714Y-125364285D01*
X83807142Y-125650000D01*
X83807142Y-126007142D01*
X83735714Y-126292857D01*
X83664285Y-126435714D01*
X83592857Y-126507142D01*
X83450000Y-126578571D01*
X83307142Y-126578571D01*
X83164285Y-126507142D01*
X83092857Y-126435714D01*
X83021428Y-126292857D01*
X82950000Y-126007142D01*
X82950000Y-125650000D01*
X83021428Y-125364285D01*
X83092857Y-125221428D01*
X83164285Y-125150000D01*
X83307142Y-125078571D01*
X84664285Y-125078571D02*
X84521428Y-125150000D01*
X84450000Y-125292857D01*
X84521428Y-125435714D01*
X84664285Y-125507142D01*
X84807142Y-125435714D01*
X84878571Y-125292857D01*
X84807142Y-125150000D01*
X84664285Y-125078571D01*
D13*
X77750223Y-42269047D02*
X77527008Y-42150000D01*
X77318675Y-41911904D01*
X77006175Y-41554761D01*
X76782961Y-41435714D01*
X76544866Y-41435714D01*
X76589508Y-42030952D02*
X76366294Y-41911904D01*
X76157961Y-41673809D01*
X76098437Y-41197619D01*
X76202604Y-40364285D01*
X76381175Y-39888095D01*
X76649032Y-39650000D01*
X76902008Y-39530952D01*
X77378199Y-39530952D01*
X77601413Y-39650000D01*
X77809747Y-39888095D01*
X77869270Y-40364285D01*
X77765104Y-41197619D01*
X77586532Y-41673809D01*
X77318675Y-41911904D01*
X77065699Y-42030952D01*
X76589508Y-42030952D01*
X79044866Y-39530952D02*
X78791889Y-41554761D01*
X78881175Y-41792857D01*
X78985342Y-41911904D01*
X79208556Y-42030952D01*
X79684747Y-42030952D01*
X79937723Y-41911904D01*
X80071651Y-41792857D01*
X80220461Y-41554761D01*
X80473437Y-39530952D01*
X81321651Y-41316666D02*
X82512127Y-41316666D01*
X80994270Y-42030952D02*
X82140104Y-39530952D01*
X82660937Y-42030952D01*
X83494270Y-42030952D02*
X83806770Y-39530952D01*
X84402008Y-39530952D01*
X84744270Y-39650000D01*
X84952604Y-39888095D01*
X85041889Y-40126190D01*
X85101413Y-40602380D01*
X85056770Y-40959523D01*
X84878199Y-41435714D01*
X84729389Y-41673809D01*
X84461532Y-41911904D01*
X84089508Y-42030952D01*
X83494270Y-42030952D01*
X87422842Y-42030952D02*
X86738318Y-40840476D01*
X85994270Y-42030952D02*
X86306770Y-39530952D01*
X87259151Y-39530952D01*
X87482366Y-39650000D01*
X87586532Y-39769047D01*
X87675818Y-40007142D01*
X87631175Y-40364285D01*
X87482366Y-40602380D01*
X87348437Y-40721428D01*
X87095461Y-40840476D01*
X86143080Y-40840476D01*
X88464508Y-41316666D02*
X89654985Y-41316666D01*
X88137127Y-42030952D02*
X89282961Y-39530952D01*
X89803794Y-42030952D01*
X90592485Y-39530952D02*
X92021056Y-39530952D01*
X90994270Y-42030952D02*
X91306770Y-39530952D01*
X92854389Y-39530952D02*
X92601413Y-41554761D01*
X92690699Y-41792857D01*
X92794866Y-41911904D01*
X93018080Y-42030952D01*
X93494270Y-42030952D01*
X93747247Y-41911904D01*
X93881175Y-41792857D01*
X94029985Y-41554761D01*
X94282961Y-39530952D01*
X96589508Y-42030952D02*
X95904985Y-40840476D01*
X95160937Y-42030952D02*
X95473437Y-39530952D01*
X96425818Y-39530952D01*
X96649032Y-39650000D01*
X96753199Y-39769047D01*
X96842485Y-40007142D01*
X96797842Y-40364285D01*
X96649032Y-40602380D01*
X96515104Y-40721428D01*
X96262127Y-40840476D01*
X95309747Y-40840476D01*
X97824627Y-40721428D02*
X98657961Y-40721428D01*
X98851413Y-42030952D02*
X97660937Y-42030952D01*
X97973437Y-39530952D01*
X99163913Y-39530952D01*
X100041889Y-41078571D02*
X101946651Y-41078571D01*
X104208556Y-42030952D02*
X103018080Y-42030952D01*
X103330580Y-39530952D01*
X106038913Y-40721428D02*
X105205580Y-40721428D01*
X105041889Y-42030952D02*
X105354389Y-39530952D01*
X106544866Y-39530952D01*
X107973437Y-39530952D02*
X108449627Y-39530952D01*
X108672842Y-39650000D01*
X108881175Y-39888095D01*
X108940699Y-40364285D01*
X108836532Y-41197619D01*
X108657961Y-41673809D01*
X108390104Y-41911904D01*
X108137127Y-42030952D01*
X107660937Y-42030952D01*
X107437723Y-41911904D01*
X107229389Y-41673809D01*
X107169866Y-41197619D01*
X107274032Y-40364285D01*
X107452604Y-39888095D01*
X107720461Y-39650000D01*
X107973437Y-39530952D01*
D12*
X90171428Y-37576190D02*
X90171428Y-38052380D01*
X89838095Y-37052380D02*
X90171428Y-37576190D01*
X90504761Y-37052380D01*
X91266666Y-37385714D02*
X91266666Y-38052380D01*
X90838095Y-37385714D02*
X90838095Y-37909523D01*
X90885714Y-38004761D01*
X90980952Y-38052380D01*
X91123809Y-38052380D01*
X91219047Y-38004761D01*
X91266666Y-37957142D01*
X91695238Y-38004761D02*
X91790476Y-38052380D01*
X91980952Y-38052380D01*
X92076190Y-38004761D01*
X92123809Y-37909523D01*
X92123809Y-37861904D01*
X92076190Y-37766666D01*
X91980952Y-37719047D01*
X91838095Y-37719047D01*
X91742857Y-37671428D01*
X91695238Y-37576190D01*
X91695238Y-37528571D01*
X91742857Y-37433333D01*
X91838095Y-37385714D01*
X91980952Y-37385714D01*
X92076190Y-37433333D01*
X92457142Y-37385714D02*
X92695238Y-38052380D01*
X92933333Y-37385714D02*
X92695238Y-38052380D01*
X92600000Y-38290476D01*
X92552380Y-38338095D01*
X92457142Y-38385714D01*
X93314285Y-37385714D02*
X93314285Y-38052380D01*
X93314285Y-37480952D02*
X93361904Y-37433333D01*
X93457142Y-37385714D01*
X93600000Y-37385714D01*
X93695238Y-37433333D01*
X93742857Y-37528571D01*
X93742857Y-38052380D01*
X94076190Y-37385714D02*
X94457142Y-37385714D01*
X94219047Y-37052380D02*
X94219047Y-37909523D01*
X94266666Y-38004761D01*
X94361904Y-38052380D01*
X94457142Y-38052380D01*
X94790476Y-38052380D02*
X94790476Y-37052380D01*
X95219047Y-38052380D02*
X95219047Y-37528571D01*
X95171428Y-37433333D01*
X95076190Y-37385714D01*
X94933333Y-37385714D01*
X94838095Y-37433333D01*
X94790476Y-37480952D01*
D10*
X98871428Y-136221428D02*
X98942857Y-136150000D01*
X99085714Y-136078571D01*
X99442857Y-136078571D01*
X99585714Y-136150000D01*
X99657142Y-136221428D01*
X99728571Y-136364285D01*
X99728571Y-136507142D01*
X99657142Y-136721428D01*
X98800000Y-137578571D01*
X99728571Y-137578571D01*
X100228571Y-136078571D02*
X101228571Y-136078571D01*
X100585714Y-137578571D01*
X102085714Y-136078571D02*
X102228571Y-136078571D01*
X102371428Y-136150000D01*
X102442857Y-136221428D01*
X102514285Y-136364285D01*
X102585714Y-136650000D01*
X102585714Y-137007142D01*
X102514285Y-137292857D01*
X102442857Y-137435714D01*
X102371428Y-137507142D01*
X102228571Y-137578571D01*
X102085714Y-137578571D01*
X101942857Y-137507142D01*
X101871428Y-137435714D01*
X101800000Y-137292857D01*
X101728571Y-137007142D01*
X101728571Y-136650000D01*
X101800000Y-136364285D01*
X101871428Y-136221428D01*
X101942857Y-136150000D01*
X102085714Y-136078571D01*
X103442857Y-136078571D02*
X103300000Y-136150000D01*
X103228571Y-136292857D01*
X103300000Y-136435714D01*
X103442857Y-136507142D01*
X103585714Y-136435714D01*
X103657142Y-136292857D01*
X103585714Y-136150000D01*
X103442857Y-136078571D01*
D11*
X95055952Y-83378571D02*
X94489285Y-83378571D01*
X94489285Y-84269047D02*
X94489285Y-82569047D01*
X95298809Y-82569047D01*
X95946428Y-84269047D02*
X95946428Y-82569047D01*
X96513095Y-83783333D01*
X97079761Y-82569047D01*
X97079761Y-84269047D01*
X99994047Y-84269047D02*
X99184523Y-84269047D01*
X99184523Y-82569047D01*
X100560714Y-83378571D02*
X101127380Y-83378571D01*
X101370238Y-84269047D02*
X100560714Y-84269047D01*
X100560714Y-82569047D01*
X101370238Y-82569047D01*
X101855952Y-82569047D02*
X102422619Y-84269047D01*
X102989285Y-82569047D01*
X103555952Y-83378571D02*
X104122619Y-83378571D01*
X104365476Y-84269047D02*
X103555952Y-84269047D01*
X103555952Y-82569047D01*
X104365476Y-82569047D01*
X105903571Y-84269047D02*
X105094047Y-84269047D01*
X105094047Y-82569047D01*
%TO.C,G\u002A\u002A\u002A*%
G36*
X79712500Y-48532866D02*
G01*
X79731282Y-48496199D01*
X79762438Y-48459126D01*
X79773084Y-48448278D01*
X79833164Y-48398489D01*
X79893542Y-48371477D01*
X79959550Y-48365534D01*
X80009504Y-48372471D01*
X80091075Y-48398866D01*
X80152756Y-48440113D01*
X80195171Y-48496999D01*
X80218943Y-48570310D01*
X80224963Y-48643750D01*
X80214586Y-48733767D01*
X80183827Y-48809698D01*
X80133248Y-48870731D01*
X80063408Y-48916055D01*
X80026464Y-48930901D01*
X79974490Y-48945286D01*
X79931675Y-48947469D01*
X79885651Y-48937986D01*
X79882716Y-48937117D01*
X79809979Y-48903403D01*
X79753324Y-48852138D01*
X79714116Y-48785989D01*
X79693725Y-48707623D01*
X79693517Y-48619707D01*
X79695863Y-48605056D01*
X79726515Y-48605056D01*
X79736422Y-48640172D01*
X79743730Y-48650280D01*
X79773616Y-48669204D01*
X79809608Y-48674210D01*
X79840853Y-48664567D01*
X79848853Y-48657365D01*
X79866465Y-48621580D01*
X79872023Y-48577211D01*
X79866627Y-48532003D01*
X79851378Y-48493700D01*
X79827378Y-48470046D01*
X79821904Y-48467841D01*
X79792245Y-48469767D01*
X79765254Y-48490571D01*
X79743554Y-48524135D01*
X79729767Y-48564336D01*
X79726515Y-48605056D01*
X79695863Y-48605056D01*
X79699797Y-48580483D01*
X79712500Y-48532866D01*
G37*
G36*
X79116603Y-48459735D02*
G01*
X79117421Y-48454130D01*
X79232378Y-48454130D01*
X79233054Y-48457810D01*
X79254367Y-48480442D01*
X79294607Y-48494526D01*
X79348993Y-48499477D01*
X79412743Y-48494714D01*
X79459677Y-48485461D01*
X79490571Y-48475317D01*
X79519903Y-48458882D01*
X79552955Y-48432299D01*
X79595009Y-48391714D01*
X79612162Y-48374179D01*
X79664980Y-48321559D01*
X79708016Y-48284444D01*
X79747406Y-48259053D01*
X79789284Y-48241607D01*
X79839788Y-48228326D01*
X79853737Y-48225367D01*
X79947908Y-48217347D01*
X80046962Y-48231476D01*
X80152092Y-48268101D01*
X80264489Y-48327570D01*
X80314589Y-48359739D01*
X80368676Y-48394705D01*
X80426890Y-48430079D01*
X80477759Y-48458921D01*
X80483625Y-48462033D01*
X80523868Y-48485278D01*
X80555050Y-48507241D01*
X80570421Y-48523165D01*
X80570422Y-48523168D01*
X80577815Y-48533058D01*
X80582808Y-48520847D01*
X80584572Y-48509667D01*
X80578681Y-48470225D01*
X80552080Y-48422167D01*
X80495850Y-48351763D01*
X80430243Y-48290669D01*
X80351216Y-48236035D01*
X80254731Y-48185008D01*
X80155265Y-48142058D01*
X80066369Y-48103667D01*
X80001119Y-48068978D01*
X79959250Y-48038159D01*
X79924650Y-48005969D01*
X79891979Y-47976058D01*
X79880873Y-47966071D01*
X79858081Y-47937022D01*
X79850022Y-47898660D01*
X79849779Y-47887554D01*
X79845440Y-47849300D01*
X79833331Y-47830460D01*
X79832334Y-47830024D01*
X79808616Y-47827452D01*
X79766141Y-47828935D01*
X79710044Y-47833747D01*
X79645460Y-47841158D01*
X79577522Y-47850441D01*
X79511366Y-47860867D01*
X79452126Y-47871708D01*
X79404937Y-47882236D01*
X79374934Y-47891721D01*
X79367931Y-47895896D01*
X79355822Y-47916127D01*
X79340444Y-47952903D01*
X79324949Y-47998608D01*
X79323659Y-48002890D01*
X79308827Y-48056753D01*
X79293098Y-48120755D01*
X79277409Y-48190189D01*
X79262698Y-48260349D01*
X79249903Y-48326529D01*
X79239959Y-48384024D01*
X79233805Y-48428126D01*
X79232378Y-48454130D01*
X79117421Y-48454130D01*
X79142489Y-48282263D01*
X79167645Y-48110827D01*
X79191757Y-47947530D01*
X79214513Y-47794474D01*
X79235598Y-47653761D01*
X79254699Y-47527494D01*
X79271501Y-47417775D01*
X79285693Y-47326705D01*
X79296960Y-47256387D01*
X79304354Y-47212500D01*
X79318278Y-47129363D01*
X79333098Y-47034201D01*
X79346870Y-46939827D01*
X79356035Y-46871875D01*
X79378003Y-46700000D01*
X80172581Y-46700000D01*
X80259780Y-46578125D01*
X80296202Y-46528212D01*
X80329612Y-46484215D01*
X80356145Y-46451115D01*
X80371228Y-46434505D01*
X80386703Y-46422777D01*
X80401249Y-46421730D01*
X80422321Y-46433011D01*
X80448173Y-46451494D01*
X80482993Y-46481457D01*
X80511146Y-46513225D01*
X80519567Y-46526369D01*
X80525637Y-46544246D01*
X80537200Y-46584365D01*
X80553729Y-46644701D01*
X80574694Y-46723232D01*
X80599567Y-46817934D01*
X80627818Y-46926783D01*
X80658920Y-47047757D01*
X80692344Y-47178832D01*
X80727560Y-47317985D01*
X80756824Y-47434380D01*
X80798936Y-47602199D01*
X80835569Y-47747663D01*
X80867261Y-47872682D01*
X80894548Y-47979166D01*
X80917969Y-48069025D01*
X80938060Y-48144171D01*
X80955360Y-48206513D01*
X80970404Y-48257962D01*
X80983731Y-48300428D01*
X80995878Y-48335822D01*
X81007382Y-48366054D01*
X81018780Y-48393035D01*
X81030610Y-48418675D01*
X81037888Y-48433700D01*
X81100394Y-48561150D01*
X81100143Y-48952450D01*
X81099713Y-49053162D01*
X81098619Y-49149489D01*
X81096956Y-49237579D01*
X81094819Y-49313583D01*
X81092304Y-49373650D01*
X81089507Y-49413929D01*
X81088468Y-49422709D01*
X81077582Y-49467679D01*
X81056666Y-49528866D01*
X81028127Y-49600797D01*
X80994373Y-49677999D01*
X80957811Y-49754998D01*
X80920848Y-49826322D01*
X80885893Y-49886498D01*
X80881278Y-49893750D01*
X80857668Y-49933901D01*
X80839649Y-49970983D01*
X80833148Y-49989517D01*
X80827283Y-50003158D01*
X80814193Y-50017621D01*
X80790859Y-50034869D01*
X80754259Y-50056864D01*
X80701375Y-50085568D01*
X80629186Y-50122941D01*
X80622549Y-50126333D01*
X80419760Y-50229881D01*
X80144209Y-50511815D01*
X79961807Y-50698140D01*
X79795783Y-50867104D01*
X79646230Y-51018614D01*
X79513240Y-51152580D01*
X79396905Y-51268908D01*
X79297316Y-51367508D01*
X79214567Y-51448287D01*
X79148749Y-51511155D01*
X79099954Y-51556018D01*
X79074397Y-51577948D01*
X78942627Y-51669299D01*
X78798384Y-51741266D01*
X78645138Y-51793203D01*
X78486360Y-51824468D01*
X78325521Y-51834413D01*
X78166092Y-51822395D01*
X78011543Y-51787768D01*
X77987147Y-51779969D01*
X77879021Y-51740171D01*
X77784230Y-51696258D01*
X77696801Y-51644479D01*
X77610766Y-51581082D01*
X77520152Y-51502316D01*
X77470877Y-51455624D01*
X77459464Y-51443750D01*
X77742492Y-51443750D01*
X77789173Y-51479443D01*
X77837824Y-51510305D01*
X77903522Y-51543282D01*
X77978840Y-51575328D01*
X78056352Y-51603399D01*
X78128631Y-51624449D01*
X78159079Y-51631126D01*
X78309696Y-51647007D01*
X78459961Y-51638178D01*
X78607346Y-51604826D01*
X78632868Y-51596408D01*
X78752572Y-51550522D01*
X78847948Y-51504119D01*
X78910796Y-51463504D01*
X78918770Y-51456890D01*
X78921766Y-51451596D01*
X78917350Y-51447391D01*
X78903087Y-51444043D01*
X78876540Y-51441321D01*
X78835274Y-51438994D01*
X78776855Y-51436830D01*
X78698847Y-51434598D01*
X78598814Y-51432067D01*
X78573129Y-51431436D01*
X78464448Y-51429385D01*
X78350246Y-51428318D01*
X78236821Y-51428218D01*
X78130467Y-51429068D01*
X78037482Y-51430850D01*
X77973856Y-51433077D01*
X77742492Y-51443750D01*
X77459464Y-51443750D01*
X77369071Y-51349707D01*
X77287594Y-51247826D01*
X77223315Y-51145345D01*
X77173105Y-51037630D01*
X77154638Y-50987310D01*
X77142485Y-50949323D01*
X77133976Y-50914867D01*
X77128499Y-50878192D01*
X77125442Y-50833545D01*
X77124190Y-50775177D01*
X77124119Y-50700935D01*
X77125284Y-50614110D01*
X77128621Y-50537424D01*
X77134878Y-50464433D01*
X77144807Y-50388693D01*
X77159156Y-50303757D01*
X77178675Y-50203182D01*
X77186441Y-50165160D01*
X77215512Y-50024070D01*
X77187162Y-49965160D01*
X77170273Y-49932216D01*
X77144102Y-49883721D01*
X77111968Y-49825716D01*
X77077186Y-49764248D01*
X77070260Y-49752169D01*
X77036217Y-49690404D01*
X77005610Y-49630227D01*
X76981417Y-49577817D01*
X76966616Y-49539353D01*
X76965030Y-49533820D01*
X76959805Y-49505376D01*
X76955662Y-49463266D01*
X76952526Y-49405361D01*
X76950320Y-49329531D01*
X76948965Y-49233646D01*
X76948385Y-49115577D01*
X76948351Y-49073068D01*
X76948351Y-48676585D01*
X76831222Y-48732042D01*
X76781336Y-48755143D01*
X76739539Y-48773532D01*
X76711160Y-48784919D01*
X76702103Y-48787500D01*
X76691790Y-48798357D01*
X76678865Y-48826024D01*
X76671954Y-48845943D01*
X76658687Y-48880932D01*
X76645345Y-48904256D01*
X76639661Y-48909095D01*
X76633816Y-48908274D01*
X76624212Y-48901851D01*
X76609512Y-48888299D01*
X76588381Y-48866090D01*
X76559483Y-48833697D01*
X76521482Y-48789591D01*
X76473043Y-48732244D01*
X76412830Y-48660129D01*
X76339506Y-48571718D01*
X76251737Y-48465482D01*
X76250156Y-48463566D01*
X76111793Y-48296086D01*
X75984355Y-48142271D01*
X75863049Y-47996340D01*
X75778234Y-47894610D01*
X75744966Y-47853838D01*
X75715771Y-47816442D01*
X75696366Y-47789770D01*
X75694878Y-47787500D01*
X75688334Y-47768257D01*
X75678669Y-47727775D01*
X75666487Y-47669535D01*
X75652390Y-47597017D01*
X75636980Y-47513703D01*
X75620859Y-47423075D01*
X75604629Y-47328614D01*
X75588893Y-47233802D01*
X75574254Y-47142121D01*
X75561312Y-47057051D01*
X75550671Y-46982074D01*
X75542934Y-46920672D01*
X75539950Y-46891959D01*
X75536277Y-46845165D01*
X75536652Y-46816903D01*
X75542264Y-46800870D01*
X75554300Y-46790762D01*
X75559583Y-46787812D01*
X75577522Y-46780464D01*
X75616304Y-46766112D01*
X75673080Y-46745763D01*
X75744998Y-46720421D01*
X75829208Y-46691090D01*
X75922858Y-46658776D01*
X76020856Y-46625246D01*
X76133011Y-46586943D01*
X76249027Y-46547162D01*
X76363973Y-46507605D01*
X76472918Y-46469975D01*
X76570934Y-46435972D01*
X76653089Y-46407298D01*
X76691975Y-46393622D01*
X76791844Y-46358469D01*
X76910030Y-46317061D01*
X77041192Y-46271258D01*
X77179991Y-46222918D01*
X77321084Y-46173901D01*
X77459132Y-46126068D01*
X77588793Y-46081277D01*
X77611177Y-46073562D01*
X77664720Y-46055999D01*
X77700770Y-46046924D01*
X77725006Y-46045417D01*
X77743108Y-46050556D01*
X77745503Y-46051768D01*
X77763136Y-46065278D01*
X77794708Y-46093579D01*
X77836811Y-46133451D01*
X77886036Y-46181677D01*
X77931145Y-46227050D01*
X78088763Y-46387500D01*
X79995375Y-46387500D01*
X80155226Y-46225000D01*
X80206997Y-46173060D01*
X80253376Y-46127832D01*
X80291316Y-46092180D01*
X80317773Y-46068970D01*
X80329424Y-46061060D01*
X80342825Y-46060664D01*
X80359489Y-46062621D01*
X80382201Y-46067828D01*
X80413744Y-46077180D01*
X80456902Y-46091574D01*
X80514458Y-46111905D01*
X80589196Y-46139070D01*
X80683899Y-46173965D01*
X80709164Y-46183314D01*
X80805138Y-46218818D01*
X80903619Y-46255199D01*
X80999117Y-46290432D01*
X81086141Y-46322491D01*
X81159200Y-46349353D01*
X81200443Y-46364474D01*
X81277475Y-46393032D01*
X81361595Y-46424823D01*
X81442510Y-46455925D01*
X81508570Y-46481875D01*
X81563287Y-46503467D01*
X81609331Y-46521151D01*
X81641867Y-46533103D01*
X81656059Y-46537499D01*
X81656063Y-46537500D01*
X81660776Y-46538354D01*
X81670970Y-46541414D01*
X81688678Y-46547426D01*
X81715933Y-46557132D01*
X81754769Y-46571279D01*
X81807219Y-46590611D01*
X81875315Y-46615873D01*
X81961091Y-46647810D01*
X82066580Y-46687166D01*
X82169670Y-46725667D01*
X82254510Y-46757084D01*
X82337822Y-46787432D01*
X82414647Y-46814942D01*
X82480025Y-46837845D01*
X82528998Y-46854372D01*
X82543112Y-46858873D01*
X82591305Y-46874252D01*
X82619987Y-46885683D01*
X82633637Y-46896291D01*
X82636737Y-46909199D01*
X82634732Y-46922772D01*
X82630716Y-46945244D01*
X82623500Y-46987973D01*
X82613815Y-47046528D01*
X82602393Y-47116479D01*
X82589968Y-47193392D01*
X82588907Y-47200000D01*
X82562428Y-47362529D01*
X82538990Y-47501213D01*
X82518406Y-47616995D01*
X82500490Y-47710821D01*
X82485054Y-47783634D01*
X82471912Y-47836380D01*
X82460877Y-47870004D01*
X82453807Y-47883323D01*
X82438405Y-47901716D01*
X82409792Y-47934988D01*
X82371313Y-47979280D01*
X82326316Y-48030734D01*
X82296584Y-48064573D01*
X82239359Y-48129632D01*
X82172438Y-48205795D01*
X82102592Y-48285349D01*
X82036593Y-48360584D01*
X82008943Y-48392129D01*
X81954319Y-48454316D01*
X81899538Y-48516415D01*
X81849058Y-48573394D01*
X81807335Y-48620216D01*
X81785106Y-48644939D01*
X81752509Y-48682005D01*
X81727623Y-48712323D01*
X81714372Y-48731027D01*
X81713204Y-48734059D01*
X81725182Y-48736579D01*
X81758994Y-48738855D01*
X81811461Y-48740798D01*
X81879404Y-48742320D01*
X81959645Y-48743332D01*
X82049006Y-48743744D01*
X82060250Y-48743750D01*
X82163452Y-48743840D01*
X82245780Y-48744307D01*
X82311370Y-48745443D01*
X82364361Y-48747543D01*
X82408888Y-48750898D01*
X82449091Y-48755804D01*
X82489107Y-48762553D01*
X82533072Y-48771438D01*
X82573091Y-48780111D01*
X82634295Y-48792883D01*
X82686469Y-48802540D01*
X82724915Y-48808305D01*
X82744936Y-48809402D01*
X82746557Y-48808814D01*
X82754079Y-48790225D01*
X82762960Y-48750149D01*
X82772767Y-48692033D01*
X82783068Y-48619325D01*
X82793430Y-48535474D01*
X82803421Y-48443929D01*
X82810677Y-48368284D01*
X83018895Y-48368284D01*
X83019340Y-48395610D01*
X83020921Y-48403371D01*
X83022106Y-48398758D01*
X83028978Y-48381250D01*
X83076367Y-48381250D01*
X83082620Y-48387500D01*
X83088873Y-48381250D01*
X83082620Y-48375000D01*
X83076367Y-48381250D01*
X83028978Y-48381250D01*
X83031575Y-48374632D01*
X83054083Y-48365863D01*
X83064509Y-48365219D01*
X83090550Y-48367906D01*
X83101379Y-48375836D01*
X83106705Y-48387535D01*
X83120452Y-48379392D01*
X83139274Y-48353621D01*
X83142024Y-48348907D01*
X83155929Y-48320625D01*
X83162158Y-48293488D01*
X83160778Y-48260465D01*
X83151855Y-48214523D01*
X83143630Y-48180693D01*
X83130116Y-48135282D01*
X83117488Y-48107495D01*
X83107245Y-48099348D01*
X83100885Y-48112858D01*
X83099928Y-48121875D01*
X83098181Y-48137280D01*
X83094490Y-48128403D01*
X83092758Y-48121875D01*
X83079937Y-48103302D01*
X83070209Y-48100000D01*
X83055813Y-48111844D01*
X83042667Y-48144763D01*
X83031655Y-48194834D01*
X83023655Y-48258133D01*
X83019703Y-48325000D01*
X83018895Y-48368284D01*
X82810677Y-48368284D01*
X82812609Y-48348136D01*
X82820561Y-48251544D01*
X82825577Y-48178688D01*
X82831960Y-48087001D01*
X82839140Y-48015954D01*
X82848480Y-47961193D01*
X82861345Y-47918364D01*
X82879098Y-47883113D01*
X82903104Y-47851087D01*
X82934727Y-47817932D01*
X82940308Y-47812500D01*
X82984160Y-47764285D01*
X83024635Y-47709870D01*
X83049111Y-47668750D01*
X83071521Y-47626013D01*
X83092333Y-47589345D01*
X83105491Y-47568915D01*
X83119689Y-47552358D01*
X83131851Y-47552473D01*
X83152000Y-47568915D01*
X83185214Y-47611779D01*
X83207591Y-47666334D01*
X83213934Y-47710236D01*
X83208048Y-47742286D01*
X83193069Y-47783436D01*
X83182669Y-47805049D01*
X83165036Y-47840273D01*
X83153698Y-47866909D01*
X83151404Y-47875661D01*
X83162709Y-47882156D01*
X83191863Y-47886456D01*
X83219899Y-47887500D01*
X83251453Y-47888233D01*
X83275832Y-47892374D01*
X83294118Y-47902836D01*
X83307394Y-47922529D01*
X83316744Y-47954366D01*
X83323249Y-48001258D01*
X83327993Y-48066117D01*
X83332058Y-48151856D01*
X83333781Y-48193750D01*
X83338464Y-48318177D01*
X83341368Y-48421536D01*
X83342342Y-48507705D01*
X83341237Y-48580564D01*
X83337903Y-48643992D01*
X83332191Y-48701866D01*
X83323949Y-48758066D01*
X83313030Y-48816471D01*
X83308980Y-48836093D01*
X83296601Y-48896319D01*
X83286391Y-48948408D01*
X83279352Y-48987078D01*
X83276484Y-49007044D01*
X83276465Y-49007714D01*
X83286751Y-49022779D01*
X83312851Y-49041933D01*
X83329616Y-49051227D01*
X83503885Y-49148327D01*
X83680382Y-49264468D01*
X83852981Y-49395128D01*
X84015555Y-49535783D01*
X84109528Y-49626941D01*
X84295023Y-49832505D01*
X84458349Y-50049439D01*
X84599972Y-50278476D01*
X84720359Y-50520352D01*
X84795393Y-50706250D01*
X84827104Y-50793044D01*
X84851484Y-50859389D01*
X84870156Y-50908177D01*
X84884743Y-50942301D01*
X84896869Y-50964655D01*
X84908154Y-50978131D01*
X84920224Y-50985624D01*
X84934700Y-50990026D01*
X84953205Y-50994230D01*
X84957526Y-50995300D01*
X85062530Y-51032493D01*
X85156833Y-51086494D01*
X85234459Y-51153827D01*
X85239394Y-51159263D01*
X85302462Y-51229990D01*
X85302462Y-51473548D01*
X85302242Y-51559117D01*
X85301347Y-51623747D01*
X85299426Y-51671495D01*
X85296129Y-51706421D01*
X85291103Y-51732582D01*
X85283999Y-51754037D01*
X85276810Y-51770072D01*
X85237073Y-51827661D01*
X85177664Y-51881949D01*
X85103925Y-51929400D01*
X85021195Y-51966480D01*
X84949163Y-51986924D01*
X84877253Y-52001772D01*
X84876914Y-52472761D01*
X84876480Y-52625895D01*
X84875324Y-52756170D01*
X84873308Y-52865722D01*
X84870294Y-52956684D01*
X84866144Y-53031192D01*
X84860720Y-53091380D01*
X84853885Y-53139382D01*
X84845499Y-53177333D01*
X84835427Y-53207368D01*
X84828469Y-53222568D01*
X84786964Y-53283987D01*
X84729744Y-53342009D01*
X84665538Y-53387942D01*
X84658395Y-53391899D01*
X84608371Y-53418750D01*
X80381290Y-53419962D01*
X80056784Y-53420033D01*
X79738310Y-53420059D01*
X79426804Y-53420043D01*
X79123200Y-53419984D01*
X78828432Y-53419885D01*
X78543434Y-53419747D01*
X78269140Y-53419571D01*
X78006485Y-53419358D01*
X77756403Y-53419110D01*
X77519827Y-53418829D01*
X77297693Y-53418515D01*
X77090934Y-53418170D01*
X76900485Y-53417796D01*
X76727280Y-53417393D01*
X76572253Y-53416963D01*
X76436338Y-53416507D01*
X76320469Y-53416028D01*
X76225582Y-53415525D01*
X76152609Y-53415001D01*
X76102485Y-53414456D01*
X76076145Y-53413893D01*
X76072920Y-53413712D01*
X75983103Y-53394832D01*
X75905937Y-53355330D01*
X75840220Y-53294330D01*
X75784748Y-53210952D01*
X75778333Y-53198633D01*
X75747760Y-53138331D01*
X75747704Y-52751679D01*
X77675591Y-52751679D01*
X77691811Y-52817302D01*
X77725448Y-52873931D01*
X77774892Y-52916909D01*
X77813516Y-52934907D01*
X77853162Y-52942240D01*
X77907623Y-52944843D01*
X77967218Y-52943027D01*
X78022264Y-52937105D01*
X78063078Y-52927388D01*
X78064525Y-52926826D01*
X78075228Y-52921875D01*
X78151768Y-52921875D01*
X78156840Y-52932250D01*
X78183077Y-52937003D01*
X78202912Y-52937500D01*
X78238361Y-52936032D01*
X78257480Y-52928080D01*
X78268921Y-52908317D01*
X78274003Y-52893750D01*
X78288449Y-52850000D01*
X78375415Y-52850000D01*
X78422816Y-52851063D01*
X78450779Y-52855111D01*
X78464824Y-52863431D01*
X78469144Y-52871875D01*
X78484623Y-52908764D01*
X78506830Y-52927493D01*
X78544151Y-52934848D01*
X78547286Y-52935093D01*
X78579201Y-52935307D01*
X78597444Y-52931259D01*
X78599102Y-52928843D01*
X78594667Y-52912487D01*
X78581951Y-52875028D01*
X78561750Y-52818661D01*
X78534856Y-52745581D01*
X78502066Y-52657981D01*
X78490359Y-52627040D01*
X78651699Y-52627040D01*
X78659776Y-52658543D01*
X78662670Y-52666983D01*
X78676824Y-52699184D01*
X78696549Y-52719867D01*
X78730065Y-52736680D01*
X78742984Y-52741715D01*
X78803580Y-52765072D01*
X78844414Y-52782297D01*
X78869302Y-52795600D01*
X78882059Y-52807193D01*
X78886501Y-52819288D01*
X78886805Y-52825065D01*
X78875652Y-52850275D01*
X78855394Y-52864840D01*
X78830116Y-52871615D01*
X78796892Y-52870544D01*
X78750618Y-52860963D01*
X78689833Y-52843350D01*
X78670064Y-52840275D01*
X78662625Y-52852273D01*
X78661694Y-52872011D01*
X78666401Y-52904051D01*
X78682878Y-52925954D01*
X78714665Y-52939523D01*
X78765297Y-52946563D01*
X78811768Y-52948530D01*
X78875309Y-52943523D01*
X78924149Y-52928105D01*
X78969051Y-52893199D01*
X78994119Y-52846147D01*
X78997942Y-52791716D01*
X78980624Y-52737543D01*
X78966509Y-52717322D01*
X78944496Y-52701315D01*
X78908706Y-52686196D01*
X78864942Y-52672126D01*
X78814799Y-52655840D01*
X78784363Y-52642312D01*
X78768918Y-52628902D01*
X78764058Y-52615654D01*
X78771288Y-52592577D01*
X78799888Y-52579327D01*
X78848131Y-52576139D01*
X78914287Y-52583248D01*
X78951106Y-52590218D01*
X78956508Y-52587500D01*
X79049385Y-52587500D01*
X79199459Y-52587500D01*
X79199459Y-52937500D01*
X79312014Y-52937500D01*
X79312014Y-52718750D01*
X79493663Y-52718750D01*
X79503692Y-52797536D01*
X79532740Y-52861968D01*
X79579872Y-52910307D01*
X79604955Y-52925454D01*
X79658217Y-52942822D01*
X79720016Y-52948464D01*
X79781089Y-52942703D01*
X79796873Y-52937500D01*
X80024865Y-52937500D01*
X80133724Y-52937500D01*
X80156180Y-52668750D01*
X80224963Y-52800000D01*
X80293747Y-52931250D01*
X80359405Y-52935028D01*
X80425062Y-52938806D01*
X80425062Y-52937500D01*
X80750222Y-52937500D01*
X80862777Y-52937500D01*
X80862777Y-52791249D01*
X80863664Y-52730091D01*
X80866158Y-52685556D01*
X80870011Y-52660599D01*
X80874070Y-52656874D01*
X80884124Y-52673586D01*
X80900266Y-52706771D01*
X80919253Y-52749708D01*
X80922010Y-52756250D01*
X80941758Y-52801246D01*
X80957055Y-52827933D01*
X80972165Y-52841434D01*
X80991352Y-52846873D01*
X80998071Y-52847652D01*
X81017145Y-52848364D01*
X81031677Y-52843254D01*
X81045349Y-52828164D01*
X81061845Y-52798934D01*
X81084847Y-52751404D01*
X81086622Y-52747652D01*
X81135758Y-52643750D01*
X81136835Y-52790625D01*
X81137913Y-52937500D01*
X81250468Y-52937500D01*
X81250468Y-52725737D01*
X81249866Y-52655532D01*
X81248200Y-52594371D01*
X81245677Y-52546492D01*
X81242504Y-52516129D01*
X81239764Y-52507363D01*
X81231477Y-52506250D01*
X81356770Y-52506250D01*
X81361068Y-52668750D01*
X81364509Y-52750370D01*
X81370856Y-52811215D01*
X81381555Y-52855466D01*
X81398051Y-52887305D01*
X81421790Y-52910912D01*
X81450992Y-52928810D01*
X81500272Y-52944139D01*
X81559164Y-52947720D01*
X81617518Y-52940102D01*
X81665179Y-52921834D01*
X81672719Y-52916816D01*
X81696633Y-52896079D01*
X81713888Y-52871792D01*
X81725696Y-52839485D01*
X81733275Y-52794686D01*
X81737836Y-52732925D01*
X81740118Y-52668750D01*
X81741275Y-52625473D01*
X81840285Y-52625473D01*
X81841951Y-52639568D01*
X81848899Y-52674326D01*
X81861880Y-52699893D01*
X81885497Y-52720389D01*
X81924352Y-52739936D01*
X81976890Y-52760394D01*
X82026239Y-52780047D01*
X82055890Y-52796199D01*
X82070333Y-52811717D01*
X82073602Y-52822156D01*
X82067374Y-52849035D01*
X82041840Y-52865426D01*
X82000570Y-52870954D01*
X81947134Y-52865244D01*
X81885101Y-52847920D01*
X81872649Y-52843289D01*
X81858016Y-52841564D01*
X81851812Y-52855329D01*
X81850764Y-52879555D01*
X81853623Y-52910694D01*
X81866893Y-52926838D01*
X81891409Y-52936015D01*
X81957178Y-52946981D01*
X82030241Y-52946901D01*
X82087428Y-52937500D01*
X82288479Y-52937500D01*
X82414131Y-52937500D01*
X82410559Y-52712409D01*
X82495223Y-52712409D01*
X82502896Y-52791423D01*
X82527523Y-52852953D01*
X82570014Y-52898698D01*
X82606988Y-52920466D01*
X82681844Y-52944113D01*
X82759212Y-52948917D01*
X82824377Y-52936277D01*
X82852029Y-52922600D01*
X82862551Y-52901479D01*
X82863762Y-52880581D01*
X82863762Y-52838608D01*
X82810611Y-52857486D01*
X82747967Y-52869444D01*
X82693568Y-52860157D01*
X82650796Y-52831819D01*
X82623032Y-52786626D01*
X82613639Y-52729670D01*
X82621770Y-52663247D01*
X82646070Y-52615864D01*
X82686401Y-52587605D01*
X82742625Y-52578555D01*
X82814601Y-52588798D01*
X82835623Y-52594556D01*
X82855227Y-52597325D01*
X82862744Y-52585372D01*
X82863762Y-52564397D01*
X82858445Y-52534299D01*
X82840094Y-52514758D01*
X82805111Y-52503963D01*
X82749900Y-52500100D01*
X82735920Y-52500000D01*
X82652005Y-52508955D01*
X82585148Y-52535331D01*
X82536179Y-52578397D01*
X82505928Y-52637417D01*
X82495228Y-52711659D01*
X82495223Y-52712409D01*
X82410559Y-52712409D01*
X82407287Y-52506250D01*
X82288479Y-52498630D01*
X82288479Y-52937500D01*
X82087428Y-52937500D01*
X82091625Y-52936810D01*
X82139351Y-52912562D01*
X82168775Y-52871338D01*
X82179970Y-52813030D01*
X82180092Y-52805162D01*
X82171867Y-52752638D01*
X82145730Y-52713902D01*
X82099491Y-52686662D01*
X82053940Y-52673197D01*
X82010448Y-52660745D01*
X81973689Y-52645550D01*
X81959116Y-52636612D01*
X81942662Y-52615012D01*
X81947276Y-52596828D01*
X81969108Y-52583331D01*
X82004305Y-52575795D01*
X82049017Y-52575493D01*
X82099391Y-52583698D01*
X82110349Y-52586627D01*
X82137799Y-52593021D01*
X82148816Y-52586633D01*
X82150904Y-52561928D01*
X82150911Y-52556714D01*
X82148751Y-52531511D01*
X82139384Y-52515077D01*
X82118483Y-52505573D01*
X82081717Y-52501162D01*
X82024759Y-52500007D01*
X82017323Y-52500000D01*
X81968585Y-52500631D01*
X81936937Y-52504212D01*
X81914462Y-52513269D01*
X81893241Y-52530331D01*
X81879178Y-52544099D01*
X81852605Y-52573227D01*
X81841017Y-52596822D01*
X81840285Y-52625473D01*
X81741275Y-52625473D01*
X81744461Y-52506250D01*
X81692936Y-52502485D01*
X81667043Y-52501876D01*
X81648856Y-52506888D01*
X81637011Y-52521159D01*
X81630144Y-52548328D01*
X81626892Y-52592035D01*
X81625891Y-52655917D01*
X81625823Y-52681593D01*
X81623712Y-52754648D01*
X81616744Y-52806111D01*
X81603622Y-52839135D01*
X81583051Y-52856874D01*
X81553734Y-52862480D01*
X81551438Y-52862500D01*
X81526465Y-52859938D01*
X81508291Y-52849940D01*
X81495649Y-52829031D01*
X81487274Y-52793738D01*
X81481901Y-52740589D01*
X81478262Y-52666111D01*
X81478084Y-52661240D01*
X81472215Y-52498767D01*
X81414492Y-52502508D01*
X81356770Y-52506250D01*
X81231477Y-52506250D01*
X81222141Y-52504996D01*
X81188609Y-52506108D01*
X81163396Y-52508524D01*
X81097732Y-52516297D01*
X81053499Y-52614398D01*
X81032629Y-52658625D01*
X81014879Y-52692493D01*
X81003080Y-52710747D01*
X81000675Y-52712500D01*
X80992236Y-52701820D01*
X80976866Y-52673227D01*
X80957245Y-52631891D01*
X80947248Y-52609375D01*
X80902412Y-52506250D01*
X80826317Y-52502528D01*
X80750222Y-52498807D01*
X80750222Y-52937500D01*
X80425062Y-52937500D01*
X80425062Y-52500000D01*
X80325013Y-52500000D01*
X80325013Y-52560666D01*
X80323598Y-52608233D01*
X80319968Y-52664956D01*
X80316857Y-52699322D01*
X80308702Y-52777312D01*
X80242065Y-52654281D01*
X80215051Y-52604277D01*
X80192661Y-52562598D01*
X80177451Y-52534013D01*
X80172058Y-52523536D01*
X80158839Y-52517984D01*
X80128103Y-52511568D01*
X80096775Y-52507012D01*
X80029811Y-52498807D01*
X80028366Y-52498630D01*
X80024865Y-52498201D01*
X80024865Y-52937500D01*
X79796873Y-52937500D01*
X79832173Y-52925864D01*
X79846518Y-52917016D01*
X79896089Y-52870273D01*
X79925261Y-52816052D01*
X79936844Y-52748506D01*
X79937322Y-52728165D01*
X79930459Y-52650894D01*
X79908797Y-52591160D01*
X79870725Y-52545261D01*
X79851341Y-52530486D01*
X79801219Y-52508565D01*
X79738908Y-52498400D01*
X79673825Y-52500074D01*
X79615385Y-52513669D01*
X79586549Y-52528167D01*
X79535650Y-52574930D01*
X79505126Y-52634020D01*
X79493789Y-52707873D01*
X79493663Y-52718750D01*
X79312014Y-52718750D01*
X79312014Y-52587500D01*
X79463673Y-52587500D01*
X79455835Y-52506250D01*
X79049385Y-52499380D01*
X79049385Y-52587500D01*
X78956508Y-52587500D01*
X78962708Y-52584381D01*
X78963764Y-52557999D01*
X78963574Y-52556250D01*
X78958776Y-52526483D01*
X78953593Y-52509375D01*
X78938012Y-52503696D01*
X78904687Y-52500730D01*
X78860716Y-52500276D01*
X78813196Y-52502133D01*
X78769225Y-52506101D01*
X78735902Y-52511978D01*
X78724909Y-52515837D01*
X78698153Y-52537025D01*
X78672611Y-52568710D01*
X78669607Y-52573614D01*
X78654657Y-52603021D01*
X78651699Y-52627040D01*
X78490359Y-52627040D01*
X78478945Y-52596875D01*
X78446903Y-52512500D01*
X78303048Y-52512500D01*
X78230159Y-52709375D01*
X78205585Y-52775792D01*
X78183874Y-52834555D01*
X78166592Y-52881419D01*
X78155303Y-52912138D01*
X78151768Y-52921875D01*
X78075228Y-52921875D01*
X78081179Y-52919122D01*
X78091344Y-52908563D01*
X78096622Y-52889553D01*
X78098613Y-52856496D01*
X78098917Y-52806559D01*
X78098917Y-52700000D01*
X77923831Y-52700000D01*
X77923831Y-52737500D01*
X77927196Y-52764300D01*
X77941500Y-52774104D01*
X77955096Y-52775000D01*
X77976282Y-52778293D01*
X77984923Y-52793083D01*
X77986362Y-52818511D01*
X77982990Y-52849699D01*
X77969459Y-52864966D01*
X77955761Y-52869700D01*
X77910511Y-52870554D01*
X77864567Y-52855108D01*
X77828094Y-52827594D01*
X77817311Y-52812079D01*
X77804794Y-52772414D01*
X77799400Y-52722579D01*
X77801492Y-52673777D01*
X77811432Y-52637213D01*
X77811646Y-52636807D01*
X77842812Y-52603814D01*
X77891161Y-52584076D01*
X77952179Y-52578415D01*
X78021351Y-52587650D01*
X78045766Y-52594281D01*
X78065242Y-52597303D01*
X78072808Y-52585754D01*
X78073905Y-52563648D01*
X78068826Y-52536058D01*
X78051338Y-52517339D01*
X78018066Y-52506099D01*
X77965633Y-52500947D01*
X77919890Y-52500205D01*
X77840310Y-52507028D01*
X77778971Y-52528223D01*
X77732554Y-52565493D01*
X77701847Y-52612075D01*
X77678399Y-52681717D01*
X77675591Y-52751679D01*
X75747704Y-52751679D01*
X75747695Y-52691040D01*
X75747450Y-52581506D01*
X75746938Y-52499380D01*
X75746931Y-52498201D01*
X75746784Y-52474576D01*
X75745752Y-52374154D01*
X75744410Y-52284142D01*
X75742813Y-52208444D01*
X75741018Y-52150963D01*
X75739598Y-52122515D01*
X75731566Y-52001281D01*
X75668890Y-51987846D01*
X75569284Y-51955313D01*
X75475030Y-51903471D01*
X75392594Y-51836568D01*
X75334767Y-51768328D01*
X75297539Y-51714245D01*
X75297539Y-51483869D01*
X75537545Y-51483869D01*
X75542175Y-51547643D01*
X75557324Y-51594408D01*
X75592361Y-51649572D01*
X75633834Y-51685387D01*
X75687221Y-51705018D01*
X75758002Y-51711632D01*
X75760266Y-51711660D01*
X75826006Y-51705420D01*
X75867959Y-51688692D01*
X75900342Y-51658681D01*
X75931515Y-51612925D01*
X75956706Y-51560425D01*
X75971149Y-51510180D01*
X75972871Y-51490674D01*
X75961760Y-51432725D01*
X75931999Y-51374730D01*
X75888939Y-51323663D01*
X75837937Y-51286501D01*
X75806557Y-51273995D01*
X75744241Y-51268342D01*
X75680074Y-51281127D01*
X75621708Y-51309452D01*
X75576792Y-51350421D01*
X75567148Y-51364635D01*
X75546021Y-51419316D01*
X75537545Y-51483869D01*
X75297539Y-51483869D01*
X75297539Y-51272099D01*
X75340253Y-51214174D01*
X75384575Y-51158567D01*
X75427723Y-51116467D01*
X75477708Y-51081397D01*
X75542539Y-51046880D01*
X75553915Y-51041410D01*
X75605383Y-51017886D01*
X75644823Y-51003753D01*
X75682319Y-50996719D01*
X75727953Y-50994490D01*
X75760266Y-50994482D01*
X75816814Y-50995997D01*
X75859296Y-51001299D01*
X75898627Y-51012911D01*
X75945721Y-51033356D01*
X75962018Y-51041118D01*
X76060656Y-51102158D01*
X76144028Y-51182176D01*
X76209555Y-51278602D01*
X76218949Y-51296878D01*
X76235623Y-51333454D01*
X76246071Y-51365974D01*
X76251708Y-51402331D01*
X76253951Y-51450416D01*
X76254259Y-51493750D01*
X76252213Y-51571712D01*
X76244451Y-51632657D01*
X76228535Y-51684352D01*
X76202028Y-51734564D01*
X76162492Y-51791060D01*
X76159882Y-51794516D01*
X76099435Y-51874339D01*
X76169964Y-51937169D01*
X76240493Y-52000000D01*
X80361901Y-51998941D01*
X84483309Y-51997883D01*
X84567047Y-51900501D01*
X84502702Y-51828375D01*
X84443554Y-51754860D01*
X84403435Y-51685673D01*
X84379248Y-51613483D01*
X84367897Y-51530958D01*
X84366642Y-51506250D01*
X84365554Y-51465557D01*
X84655636Y-51465557D01*
X84655726Y-51501251D01*
X84671524Y-51564614D01*
X84699112Y-51622625D01*
X84734425Y-51668218D01*
X84764698Y-51690605D01*
X84826657Y-51709214D01*
X84895682Y-51710427D01*
X84961180Y-51694559D01*
X84982858Y-51684162D01*
X85034165Y-51643393D01*
X85067445Y-51588183D01*
X85084204Y-51515875D01*
X85085413Y-51503054D01*
X85086778Y-51454970D01*
X85080107Y-51419066D01*
X85063056Y-51383180D01*
X85061957Y-51381285D01*
X85019902Y-51330380D01*
X84964786Y-51293843D01*
X84902419Y-51273134D01*
X84838613Y-51269712D01*
X84779180Y-51285037D01*
X84749403Y-51302785D01*
X84704227Y-51349066D01*
X84671706Y-51406004D01*
X84655636Y-51465557D01*
X84365554Y-51465557D01*
X84365180Y-51451575D01*
X84366943Y-51412523D01*
X84373964Y-51379743D01*
X84388276Y-51343888D01*
X84411911Y-51295606D01*
X84412845Y-51293750D01*
X84444979Y-51236708D01*
X84483586Y-51178004D01*
X84521052Y-51129096D01*
X84526082Y-51123337D01*
X84589005Y-51052924D01*
X84570604Y-50982312D01*
X84535186Y-50866598D01*
X84486195Y-50736907D01*
X84425918Y-50598593D01*
X84356642Y-50457011D01*
X84305011Y-50360610D01*
X84223237Y-50228886D01*
X84122495Y-50091851D01*
X84006901Y-49953814D01*
X83880573Y-49819083D01*
X83747629Y-49691969D01*
X83612187Y-49576778D01*
X83478363Y-49477821D01*
X83432792Y-49447896D01*
X83325892Y-49381999D01*
X83230237Y-49327609D01*
X83137566Y-49280581D01*
X83039619Y-49236771D01*
X82928137Y-49192037D01*
X82905490Y-49183374D01*
X82696680Y-49114318D01*
X82486142Y-49065898D01*
X82269875Y-49037546D01*
X82043873Y-49028694D01*
X81859886Y-49034858D01*
X81794691Y-49039210D01*
X81738913Y-49043499D01*
X81697054Y-49047333D01*
X81673614Y-49050322D01*
X81670264Y-49051298D01*
X81670521Y-49064878D01*
X81675291Y-49097162D01*
X81683661Y-49142450D01*
X81689030Y-49168750D01*
X81713456Y-49313551D01*
X81729158Y-49469923D01*
X81736034Y-49630933D01*
X81733984Y-49789649D01*
X81722906Y-49939137D01*
X81702702Y-50072466D01*
X81702188Y-50075000D01*
X81670605Y-50200319D01*
X81625769Y-50336617D01*
X81570449Y-50477652D01*
X81507417Y-50617183D01*
X81439444Y-50748969D01*
X81369300Y-50866770D01*
X81317472Y-50941474D01*
X81255304Y-51017540D01*
X81178865Y-51100618D01*
X81093809Y-51185314D01*
X81005792Y-51266235D01*
X80920469Y-51337987D01*
X80843494Y-51395176D01*
X80837765Y-51399028D01*
X80760267Y-51446994D01*
X80666731Y-51499174D01*
X80564800Y-51551735D01*
X80462116Y-51600847D01*
X80366325Y-51642680D01*
X80302001Y-51667545D01*
X80253735Y-51682617D01*
X80189063Y-51699848D01*
X80116231Y-51717173D01*
X80043488Y-51732525D01*
X80039372Y-51733326D01*
X79972691Y-51745614D01*
X79914917Y-51754447D01*
X79859384Y-51760356D01*
X79799423Y-51763870D01*
X79728366Y-51765520D01*
X79639546Y-51765837D01*
X79630921Y-51765820D01*
X79539714Y-51765137D01*
X79467940Y-51763282D01*
X79410032Y-51759818D01*
X79360422Y-51754309D01*
X79313542Y-51746319D01*
X79274496Y-51737901D01*
X79208852Y-51722698D01*
X79163754Y-51711869D01*
X79135357Y-51704254D01*
X79119815Y-51698689D01*
X79113284Y-51694012D01*
X79111917Y-51689063D01*
X79111916Y-51688766D01*
X79120447Y-51678136D01*
X79144821Y-51651709D01*
X79183203Y-51611375D01*
X79233763Y-51559028D01*
X79294667Y-51496559D01*
X79364084Y-51425861D01*
X79440180Y-51348825D01*
X79480323Y-51308358D01*
X79578807Y-51209816D01*
X79664529Y-51125283D01*
X79736714Y-51055490D01*
X79794587Y-51001168D01*
X79837375Y-50963048D01*
X79864301Y-50941863D01*
X79873270Y-50937500D01*
X79901706Y-50932594D01*
X79947398Y-50919225D01*
X80004897Y-50899413D01*
X80068753Y-50875180D01*
X80133518Y-50848546D01*
X80193740Y-50821533D01*
X80218710Y-50809389D01*
X80308683Y-50761942D01*
X80387113Y-50714723D01*
X80431398Y-50683055D01*
X80762728Y-50683055D01*
X80772447Y-50765157D01*
X80800928Y-50830995D01*
X80847154Y-50879611D01*
X80910110Y-50910046D01*
X80988780Y-50921342D01*
X81014755Y-50920882D01*
X81067632Y-50914289D01*
X81107930Y-50898300D01*
X81129565Y-50883694D01*
X81182661Y-50835772D01*
X81215393Y-50785515D01*
X81231850Y-50725345D01*
X81235327Y-50687779D01*
X81232599Y-50616427D01*
X81214151Y-50560320D01*
X81176862Y-50513110D01*
X81132320Y-50478125D01*
X81090575Y-50453026D01*
X81053331Y-50440902D01*
X81006943Y-50437520D01*
X81001380Y-50437500D01*
X80924236Y-50448571D01*
X80859382Y-50480115D01*
X80809251Y-50529627D01*
X80776280Y-50594602D01*
X80762901Y-50672535D01*
X80762728Y-50683055D01*
X80431398Y-50683055D01*
X80457075Y-50664693D01*
X80521645Y-50608813D01*
X80583898Y-50544044D01*
X80646911Y-50467347D01*
X80713757Y-50375682D01*
X80787514Y-50266011D01*
X80821161Y-50214052D01*
X80867893Y-50138492D01*
X80917511Y-50053365D01*
X80968212Y-49962238D01*
X81018188Y-49868681D01*
X81065636Y-49776261D01*
X81108749Y-49688546D01*
X81145722Y-49609105D01*
X81174749Y-49541505D01*
X81194025Y-49489315D01*
X81200739Y-49463918D01*
X81204119Y-49432785D01*
X81207148Y-49380953D01*
X81209691Y-49312721D01*
X81211611Y-49232389D01*
X81212770Y-49144257D01*
X81213058Y-49076418D01*
X81213389Y-48985510D01*
X81214261Y-48899427D01*
X81214886Y-48863140D01*
X82964354Y-48863140D01*
X82967159Y-48887622D01*
X82976020Y-48903203D01*
X82991404Y-48913820D01*
X83013778Y-48923411D01*
X83014510Y-48923703D01*
X83048111Y-48935139D01*
X83069895Y-48934543D01*
X83083741Y-48918421D01*
X83093527Y-48883280D01*
X83099820Y-48846875D01*
X83116306Y-48736170D01*
X83127180Y-48646127D01*
X83132750Y-48573117D01*
X83133322Y-48513511D01*
X83131004Y-48478702D01*
X83125582Y-48439369D01*
X83119277Y-48413301D01*
X83113867Y-48406261D01*
X83108855Y-48421381D01*
X83110315Y-48441086D01*
X83106306Y-48473449D01*
X83080358Y-48494538D01*
X83051354Y-48501927D01*
X83039302Y-48504667D01*
X83029920Y-48511542D01*
X83021997Y-48526252D01*
X83014324Y-48552500D01*
X83005690Y-48593987D01*
X82994886Y-48654413D01*
X82987604Y-48696925D01*
X82975043Y-48771729D01*
X82967138Y-48825821D01*
X82964354Y-48863140D01*
X81214886Y-48863140D01*
X81215588Y-48822418D01*
X81217283Y-48758733D01*
X81219260Y-48712620D01*
X81220872Y-48692158D01*
X81228576Y-48628067D01*
X81319993Y-48670283D01*
X81365207Y-48690162D01*
X81403105Y-48705006D01*
X81426887Y-48712201D01*
X81429705Y-48712499D01*
X81444066Y-48703071D01*
X81474385Y-48675019D01*
X81520332Y-48628693D01*
X81581580Y-48564442D01*
X81657798Y-48482618D01*
X81748659Y-48383569D01*
X81853833Y-48267646D01*
X81972990Y-48135198D01*
X81982078Y-48125058D01*
X82065043Y-48031589D01*
X82132095Y-47953933D01*
X82184821Y-47890040D01*
X82224808Y-47837861D01*
X82253644Y-47795346D01*
X82272915Y-47760446D01*
X82282249Y-47737429D01*
X82289914Y-47709327D01*
X82301342Y-47660774D01*
X82315643Y-47595882D01*
X82331928Y-47518765D01*
X82349303Y-47433534D01*
X82362243Y-47368157D01*
X82380975Y-47271384D01*
X82395014Y-47196235D01*
X82404728Y-47139851D01*
X82410488Y-47099371D01*
X82412664Y-47071937D01*
X82411624Y-47054690D01*
X82407740Y-47044772D01*
X82404502Y-47041385D01*
X82383076Y-47029359D01*
X82341291Y-47010325D01*
X82282383Y-46985572D01*
X82209588Y-46956387D01*
X82126143Y-46924058D01*
X82035283Y-46889871D01*
X81940244Y-46855115D01*
X81900788Y-46840987D01*
X81816432Y-46810513D01*
X81722343Y-46775769D01*
X81628925Y-46740638D01*
X81546580Y-46709005D01*
X81531857Y-46703243D01*
X81449332Y-46671555D01*
X81354814Y-46636415D01*
X81260081Y-46602145D01*
X81178452Y-46573592D01*
X81108010Y-46549112D01*
X81038772Y-46524283D01*
X80977608Y-46501618D01*
X80931387Y-46483630D01*
X80922076Y-46479782D01*
X80884076Y-46464532D01*
X80831413Y-46444482D01*
X80768238Y-46421101D01*
X80698706Y-46395861D01*
X80626969Y-46370231D01*
X80557180Y-46345683D01*
X80493494Y-46323686D01*
X80440063Y-46305712D01*
X80401040Y-46293231D01*
X80380579Y-46287713D01*
X80379203Y-46287573D01*
X80363840Y-46296473D01*
X80335720Y-46320926D01*
X80298288Y-46357436D01*
X80254992Y-46402512D01*
X80209277Y-46452659D01*
X80164589Y-46504385D01*
X80160609Y-46509150D01*
X80106155Y-46574551D01*
X79662410Y-46574775D01*
X79218665Y-46575000D01*
X79096402Y-46696744D01*
X79044058Y-46747788D01*
X79006027Y-46782085D01*
X78979927Y-46801502D01*
X78963372Y-46807907D01*
X78956796Y-46806119D01*
X78941315Y-46793643D01*
X78911053Y-46768130D01*
X78870044Y-46733018D01*
X78822323Y-46691743D01*
X78810258Y-46681250D01*
X78681063Y-46568750D01*
X77980109Y-46561240D01*
X77836288Y-46411332D01*
X77692467Y-46261423D01*
X77192221Y-46431812D01*
X77073285Y-46472476D01*
X76951313Y-46514458D01*
X76830674Y-46556233D01*
X76715740Y-46596280D01*
X76610878Y-46633075D01*
X76520459Y-46665094D01*
X76448851Y-46690816D01*
X76441852Y-46693363D01*
X76347834Y-46727173D01*
X76243307Y-46764005D01*
X76137177Y-46800770D01*
X76038351Y-46834376D01*
X75969744Y-46857169D01*
X75888689Y-46884159D01*
X75828915Y-46905293D01*
X75787696Y-46921735D01*
X75762307Y-46934646D01*
X75750022Y-46945189D01*
X75747760Y-46951830D01*
X75749711Y-46973196D01*
X75755137Y-47014770D01*
X75763393Y-47072509D01*
X75773838Y-47142371D01*
X75785828Y-47220312D01*
X75798720Y-47302288D01*
X75811871Y-47384258D01*
X75824638Y-47462177D01*
X75836379Y-47532003D01*
X75846449Y-47589692D01*
X75854207Y-47631202D01*
X75859009Y-47652490D01*
X75859342Y-47653456D01*
X75874044Y-47679856D01*
X75904011Y-47723376D01*
X75947948Y-47782400D01*
X76004559Y-47855314D01*
X76072546Y-47940502D01*
X76150616Y-48036349D01*
X76237470Y-48141240D01*
X76331814Y-48253560D01*
X76432352Y-48371693D01*
X76482998Y-48430649D01*
X76535773Y-48491612D01*
X76575041Y-48536027D01*
X76603413Y-48566463D01*
X76623500Y-48585489D01*
X76637913Y-48595675D01*
X76649261Y-48599589D01*
X76655084Y-48600000D01*
X76680820Y-48591398D01*
X76719782Y-48567799D01*
X76768159Y-48532511D01*
X76822142Y-48488843D01*
X76877922Y-48440104D01*
X76931690Y-48389603D01*
X76979635Y-48340649D01*
X77017950Y-48296549D01*
X77039817Y-48265822D01*
X77058493Y-48233712D01*
X77074629Y-48202423D01*
X77089414Y-48168382D01*
X77104040Y-48128020D01*
X77119695Y-48077765D01*
X77137570Y-48014044D01*
X77158856Y-47933288D01*
X77184741Y-47831924D01*
X77185799Y-47827744D01*
X77208421Y-47739430D01*
X77235599Y-47634987D01*
X77265235Y-47522383D01*
X77295228Y-47409588D01*
X77323478Y-47304569D01*
X77329808Y-47281250D01*
X77357615Y-47178919D01*
X77388094Y-47066568D01*
X77419060Y-46952266D01*
X77448326Y-46844082D01*
X77473708Y-46750085D01*
X77478786Y-46731250D01*
X77499815Y-46653907D01*
X77519428Y-46583064D01*
X77536436Y-46522916D01*
X77549649Y-46477659D01*
X77557876Y-46451492D01*
X77558854Y-46448827D01*
X77579194Y-46421818D01*
X77611615Y-46400294D01*
X77646081Y-46389621D01*
X77666075Y-46391491D01*
X77679746Y-46403613D01*
X77704809Y-46432082D01*
X77738007Y-46472982D01*
X77776084Y-46522396D01*
X77786760Y-46536664D01*
X77889616Y-46675000D01*
X78161015Y-46674999D01*
X78240846Y-46675278D01*
X78311968Y-46676059D01*
X78370676Y-46677256D01*
X78413263Y-46678786D01*
X78436022Y-46680564D01*
X78438741Y-46681323D01*
X78439506Y-46695368D01*
X78437157Y-46729398D01*
X78432134Y-46778650D01*
X78424875Y-46838362D01*
X78422919Y-46853198D01*
X78415009Y-46912373D01*
X78404550Y-46990695D01*
X78392294Y-47082533D01*
X78378991Y-47182252D01*
X78365395Y-47284220D01*
X78355795Y-47356250D01*
X78332458Y-47531270D01*
X78312088Y-47683784D01*
X78294371Y-47816068D01*
X78278994Y-47930399D01*
X78265644Y-48029054D01*
X78254007Y-48114311D01*
X78243770Y-48188447D01*
X78234620Y-48253739D01*
X78226244Y-48312464D01*
X78218329Y-48366899D01*
X78210560Y-48419321D01*
X78202625Y-48472008D01*
X78199322Y-48493750D01*
X78186656Y-48577853D01*
X78174115Y-48662721D01*
X78162672Y-48741665D01*
X78153297Y-48807998D01*
X78147893Y-48847842D01*
X78144277Y-48878368D01*
X78141413Y-48902942D01*
X78137782Y-48924048D01*
X78131864Y-48944172D01*
X78122142Y-48965800D01*
X78107096Y-48991419D01*
X78085207Y-49023514D01*
X78054957Y-49064570D01*
X78014828Y-49117073D01*
X77963299Y-49183510D01*
X77898853Y-49266367D01*
X77867553Y-49306680D01*
X77790111Y-49407095D01*
X77720617Y-49498610D01*
X77651747Y-49590959D01*
X77576177Y-49693879D01*
X77573991Y-49696875D01*
X77540659Y-49740132D01*
X77510860Y-49774460D01*
X77488572Y-49795502D01*
X77479759Y-49799999D01*
X77466298Y-49793432D01*
X77446968Y-49772538D01*
X77420536Y-49735530D01*
X77385769Y-49680619D01*
X77341432Y-49606020D01*
X77318203Y-49565850D01*
X77259076Y-49462951D01*
X77248818Y-48999425D01*
X77246305Y-48894209D01*
X77243628Y-48796981D01*
X77241260Y-48722178D01*
X77273511Y-48722178D01*
X77279738Y-48737777D01*
X77295759Y-48766813D01*
X77310340Y-48790650D01*
X77353559Y-48844029D01*
X77405512Y-48878297D01*
X77470956Y-48895840D01*
X77527040Y-48899447D01*
X77573113Y-48898914D01*
X77603674Y-48894277D01*
X77628218Y-48882096D01*
X77656237Y-48858930D01*
X77667651Y-48848484D01*
X77732955Y-48777630D01*
X77776982Y-48703833D01*
X77785399Y-48683521D01*
X77792484Y-48659490D01*
X77787325Y-48657038D01*
X77770083Y-48676034D01*
X77740923Y-48716349D01*
X77737069Y-48721971D01*
X77679322Y-48789538D01*
X77613317Y-48834312D01*
X77563523Y-48852248D01*
X77529388Y-48857994D01*
X77497658Y-48854399D01*
X77457148Y-48839947D01*
X77449784Y-48836818D01*
X77410990Y-48817803D01*
X77380790Y-48798820D01*
X77369851Y-48788858D01*
X77351505Y-48769818D01*
X77326032Y-48749095D01*
X77300108Y-48731310D01*
X77280406Y-48721081D01*
X77273511Y-48722178D01*
X77241260Y-48722178D01*
X77240892Y-48710546D01*
X77238200Y-48637708D01*
X77236671Y-48603767D01*
X77292270Y-48603767D01*
X77294158Y-48615553D01*
X77310833Y-48622557D01*
X77343305Y-48624709D01*
X77382881Y-48622241D01*
X77420868Y-48615383D01*
X77432501Y-48611877D01*
X77467790Y-48589758D01*
X77489253Y-48551303D01*
X77498188Y-48493801D01*
X77498622Y-48473843D01*
X77495567Y-48430063D01*
X77484048Y-48400172D01*
X77467440Y-48380197D01*
X77440153Y-48360691D01*
X77413840Y-48360966D01*
X77384786Y-48382212D01*
X77356558Y-48415792D01*
X77339878Y-48444873D01*
X77322820Y-48485538D01*
X77307674Y-48530460D01*
X77296728Y-48572312D01*
X77292270Y-48603767D01*
X77236671Y-48603767D01*
X77235657Y-48581272D01*
X77233367Y-48544043D01*
X77231434Y-48528826D01*
X77231325Y-48528668D01*
X77217297Y-48529538D01*
X77204727Y-48537499D01*
X77184967Y-48549240D01*
X77177844Y-48542208D01*
X77182468Y-48518659D01*
X77197949Y-48480850D01*
X77223398Y-48431036D01*
X77257924Y-48371473D01*
X77290736Y-48319463D01*
X77340331Y-48250000D01*
X77467356Y-48250000D01*
X77473317Y-48257918D01*
X77500593Y-48262082D01*
X77517264Y-48262500D01*
X77585498Y-48272019D01*
X77642675Y-48302340D01*
X77672761Y-48330062D01*
X77697612Y-48355011D01*
X77707282Y-48360211D01*
X77702023Y-48345584D01*
X77690321Y-48324734D01*
X77664629Y-48295258D01*
X77628050Y-48268234D01*
X77616881Y-48262234D01*
X77574982Y-48246983D01*
X77531417Y-48238907D01*
X77493891Y-48238637D01*
X77470110Y-48246802D01*
X77467356Y-48250000D01*
X77340331Y-48250000D01*
X77340862Y-48249256D01*
X77388177Y-48199713D01*
X77437674Y-48167746D01*
X77494346Y-48150265D01*
X77563184Y-48144182D01*
X77574258Y-48144064D01*
X77625317Y-48144900D01*
X77659735Y-48149182D01*
X77685848Y-48158950D01*
X77711988Y-48176246D01*
X77715030Y-48178548D01*
X77766313Y-48230596D01*
X77807402Y-48297119D01*
X77832190Y-48367928D01*
X77833883Y-48376834D01*
X77843120Y-48431250D01*
X77977781Y-48442199D01*
X78033172Y-48446080D01*
X78078797Y-48448104D01*
X78109251Y-48448104D01*
X78119057Y-48446536D01*
X78120521Y-48432676D01*
X78120995Y-48397450D01*
X78120526Y-48344470D01*
X78119158Y-48277348D01*
X78116936Y-48199696D01*
X78115422Y-48155348D01*
X78105170Y-47870773D01*
X78073905Y-47861601D01*
X78050834Y-47854774D01*
X78009129Y-47842378D01*
X77954121Y-47826000D01*
X77891141Y-47807225D01*
X77870993Y-47801214D01*
X77795153Y-47778874D01*
X77739958Y-47763560D01*
X77702205Y-47754753D01*
X77678692Y-47751933D01*
X77666219Y-47754579D01*
X77661584Y-47762172D01*
X77661202Y-47767146D01*
X77654223Y-47786481D01*
X77635820Y-47819933D01*
X77609788Y-47861783D01*
X77579926Y-47906310D01*
X77550031Y-47947794D01*
X77523900Y-47980516D01*
X77509780Y-47995234D01*
X77477676Y-48017019D01*
X77447999Y-48029213D01*
X77423763Y-48039441D01*
X77385444Y-48060619D01*
X77338025Y-48089448D01*
X77286488Y-48122629D01*
X77235817Y-48156864D01*
X77190993Y-48188853D01*
X77156999Y-48215298D01*
X77138818Y-48232900D01*
X77137732Y-48234632D01*
X77135415Y-48251739D01*
X77133648Y-48291841D01*
X77132441Y-48352937D01*
X77131805Y-48433026D01*
X77131750Y-48530109D01*
X77132285Y-48642184D01*
X77133422Y-48767253D01*
X77134555Y-48859517D01*
X77142699Y-49462785D01*
X77236244Y-49644539D01*
X77271956Y-49712016D01*
X77308131Y-49777039D01*
X77341464Y-49833889D01*
X77368648Y-49876845D01*
X77378717Y-49891082D01*
X77427646Y-49955870D01*
X77367383Y-50262310D01*
X77350147Y-50352380D01*
X77334337Y-50439582D01*
X77320734Y-50519236D01*
X77310119Y-50586666D01*
X77303274Y-50637193D01*
X77301265Y-50658017D01*
X77305547Y-50782889D01*
X77334470Y-50909069D01*
X77387755Y-51035721D01*
X77465122Y-51162008D01*
X77473354Y-51173460D01*
X77538147Y-51262500D01*
X78340664Y-51261682D01*
X79143181Y-51260865D01*
X79303009Y-51089807D01*
X79344665Y-51045798D01*
X79401421Y-50986695D01*
X79470723Y-50915118D01*
X79550017Y-50833682D01*
X79636749Y-50745006D01*
X79728365Y-50651706D01*
X79822311Y-50556399D01*
X79909558Y-50468233D01*
X80356278Y-50017717D01*
X80466182Y-49975467D01*
X80539273Y-49945242D01*
X80594103Y-49916545D01*
X80636753Y-49885169D01*
X80673309Y-49846911D01*
X80696951Y-49815989D01*
X80768528Y-49697289D01*
X80827289Y-49559397D01*
X80872398Y-49405067D01*
X80903018Y-49237054D01*
X80916653Y-49092362D01*
X80921720Y-49003475D01*
X80870363Y-49007727D01*
X80789232Y-49014692D01*
X80729447Y-49020524D01*
X80687397Y-49025737D01*
X80659470Y-49030847D01*
X80642055Y-49036366D01*
X80633174Y-49041490D01*
X80623805Y-49058235D01*
X80609617Y-49096425D01*
X80591520Y-49153172D01*
X80570431Y-49225586D01*
X80547261Y-49310779D01*
X80543527Y-49325000D01*
X80522444Y-49403839D01*
X80502549Y-49474832D01*
X80484953Y-49534285D01*
X80470763Y-49578503D01*
X80461090Y-49603793D01*
X80458556Y-49607968D01*
X80442508Y-49616124D01*
X80406554Y-49630405D01*
X80354633Y-49649376D01*
X80290680Y-49671602D01*
X80218632Y-49695648D01*
X80212457Y-49697666D01*
X80110253Y-49730976D01*
X80029117Y-49757266D01*
X79966349Y-49777299D01*
X79919246Y-49791833D01*
X79885108Y-49801631D01*
X79861232Y-49807452D01*
X79844917Y-49810059D01*
X79833462Y-49810210D01*
X79824165Y-49808669D01*
X79821039Y-49807900D01*
X79803827Y-49797228D01*
X79770171Y-49770422D01*
X79721529Y-49728808D01*
X79659363Y-49673710D01*
X79585130Y-49606451D01*
X79500291Y-49528357D01*
X79406305Y-49440751D01*
X79304631Y-49344957D01*
X79196730Y-49242301D01*
X79178976Y-49225318D01*
X79027178Y-49080011D01*
X79063897Y-48824380D01*
X79087234Y-48662428D01*
X79659986Y-48662428D01*
X79666663Y-48734238D01*
X79683149Y-48799282D01*
X79688249Y-48812170D01*
X79718973Y-48864777D01*
X79762341Y-48915403D01*
X79811477Y-48957351D01*
X79859503Y-48983926D01*
X79867331Y-48986512D01*
X79931695Y-48997246D01*
X80000832Y-48996106D01*
X80063080Y-48983631D01*
X80081143Y-48976658D01*
X80161662Y-48927677D01*
X80223295Y-48863633D01*
X80264550Y-48786588D01*
X80283932Y-48698605D01*
X80284116Y-48696377D01*
X80283013Y-48608509D01*
X80263608Y-48534813D01*
X80224713Y-48471226D01*
X80214911Y-48459830D01*
X80149524Y-48403769D01*
X80075602Y-48367796D01*
X79997129Y-48351334D01*
X79918089Y-48353808D01*
X79842463Y-48374642D01*
X79774236Y-48413261D01*
X79717391Y-48469087D01*
X79677574Y-48537500D01*
X79663496Y-48593598D01*
X79659986Y-48662428D01*
X79087234Y-48662428D01*
X79090301Y-48641141D01*
X79116603Y-48459735D01*
G37*
G36*
X80704336Y-46513995D02*
G01*
X80737236Y-46523050D01*
X80784448Y-46537924D01*
X80846952Y-46558964D01*
X80925725Y-46586519D01*
X81021749Y-46620936D01*
X81136001Y-46662563D01*
X81269462Y-46711749D01*
X81423110Y-46768842D01*
X81597925Y-46834189D01*
X81794885Y-46908139D01*
X81838257Y-46924457D01*
X81920630Y-46955367D01*
X82001730Y-46985634D01*
X82076296Y-47013307D01*
X82139071Y-47036436D01*
X82184795Y-47053071D01*
X82191616Y-47055512D01*
X82237275Y-47072749D01*
X82273176Y-47088104D01*
X82293250Y-47098921D01*
X82295274Y-47100875D01*
X82294351Y-47115757D01*
X82287897Y-47150999D01*
X82276741Y-47202784D01*
X82261714Y-47267294D01*
X82243646Y-47340711D01*
X82239839Y-47355739D01*
X82208003Y-47473996D01*
X82176587Y-47573490D01*
X82142758Y-47660246D01*
X82103678Y-47740289D01*
X82056514Y-47819644D01*
X81998430Y-47904335D01*
X81952362Y-47966572D01*
X81896935Y-48037908D01*
X81835655Y-48113344D01*
X81770766Y-48190437D01*
X81704509Y-48266743D01*
X81639129Y-48339819D01*
X81576867Y-48407223D01*
X81519966Y-48466511D01*
X81470669Y-48515241D01*
X81431218Y-48550969D01*
X81403857Y-48571251D01*
X81393841Y-48575000D01*
X81370140Y-48568432D01*
X81333803Y-48551206D01*
X81292659Y-48527038D01*
X81292302Y-48526807D01*
X81241361Y-48489643D01*
X81199503Y-48448194D01*
X81164763Y-48398725D01*
X81135173Y-48337505D01*
X81108765Y-48260797D01*
X81083574Y-48164870D01*
X81070025Y-48104875D01*
X81061497Y-48067641D01*
X81047442Y-48008844D01*
X81028520Y-47931142D01*
X81005389Y-47837197D01*
X80978709Y-47729667D01*
X80949140Y-47611213D01*
X80917341Y-47484493D01*
X80883972Y-47352168D01*
X80857087Y-47246020D01*
X80824149Y-47115799D01*
X80793237Y-46992740D01*
X80764874Y-46878987D01*
X80739585Y-46776682D01*
X80717894Y-46687968D01*
X80700325Y-46614989D01*
X80687401Y-46559887D01*
X80679647Y-46524804D01*
X80677554Y-46511948D01*
X80684768Y-46510411D01*
X80704336Y-46513995D01*
G37*
G36*
X78206097Y-50089536D02*
G01*
X78298362Y-50097405D01*
X78358947Y-50107012D01*
X78417249Y-50122320D01*
X78481558Y-50144895D01*
X78546672Y-50172245D01*
X78607388Y-50201873D01*
X78658501Y-50231286D01*
X78694810Y-50257989D01*
X78709336Y-50275000D01*
X78716809Y-50304776D01*
X78720067Y-50353278D01*
X78719383Y-50414636D01*
X78715031Y-50482982D01*
X78707286Y-50552445D01*
X78696422Y-50617158D01*
X78692511Y-50635137D01*
X78664714Y-50726297D01*
X78626019Y-50812971D01*
X78580178Y-50887702D01*
X78543364Y-50931429D01*
X78505855Y-50962837D01*
X78455361Y-50997244D01*
X78401922Y-51027891D01*
X78394479Y-51031644D01*
X78348101Y-51053677D01*
X78310986Y-51067860D01*
X78274524Y-51076168D01*
X78230106Y-51080577D01*
X78170493Y-51083019D01*
X78097394Y-51083087D01*
X78032238Y-51079114D01*
X77983142Y-51071617D01*
X77980109Y-51070870D01*
X77906503Y-51045486D01*
X77829357Y-51007964D01*
X77757044Y-50963126D01*
X77697939Y-50915797D01*
X77681143Y-50898673D01*
X77647577Y-50855890D01*
X77620798Y-50807361D01*
X77596239Y-50744476D01*
X77590916Y-50728579D01*
X77576265Y-50681761D01*
X77566208Y-50641884D01*
X77559895Y-50602174D01*
X77556476Y-50555858D01*
X77555101Y-50496161D01*
X77554899Y-50441562D01*
X77555246Y-50370047D01*
X77556650Y-50318914D01*
X77559661Y-50283550D01*
X77564825Y-50259344D01*
X77572691Y-50241683D01*
X77579912Y-50230992D01*
X77611836Y-50203137D01*
X77665333Y-50174043D01*
X77737112Y-50145179D01*
X77823882Y-50118011D01*
X77847668Y-50111620D01*
X77920071Y-50098206D01*
X78009147Y-50090007D01*
X78107090Y-50087093D01*
X78206097Y-50089536D01*
G37*
G36*
X77390081Y-46475201D02*
G01*
X77392465Y-46477054D01*
X77393920Y-46478682D01*
X77394858Y-46485785D01*
X77392389Y-46503300D01*
X77386057Y-46532999D01*
X77375403Y-46576656D01*
X77359970Y-46636043D01*
X77339302Y-46712933D01*
X77312941Y-46809100D01*
X77280430Y-46926315D01*
X77254632Y-47018750D01*
X77233509Y-47095726D01*
X77209837Y-47184257D01*
X77186993Y-47271612D01*
X77173366Y-47325000D01*
X77140006Y-47455383D01*
X77105891Y-47584712D01*
X77071807Y-47710279D01*
X77038542Y-47829381D01*
X77006882Y-47939310D01*
X76977614Y-48037362D01*
X76951524Y-48120830D01*
X76929401Y-48187009D01*
X76912030Y-48233194D01*
X76904437Y-48249763D01*
X76878915Y-48286077D01*
X76840647Y-48326320D01*
X76795245Y-48366028D01*
X76748319Y-48400733D01*
X76705481Y-48425973D01*
X76672343Y-48437281D01*
X76668500Y-48437500D01*
X76646271Y-48428045D01*
X76611582Y-48401248D01*
X76567379Y-48359460D01*
X76555868Y-48347654D01*
X76517240Y-48305474D01*
X76467346Y-48248034D01*
X76410003Y-48180016D01*
X76349028Y-48106104D01*
X76288238Y-48030981D01*
X76231450Y-47959330D01*
X76182480Y-47895834D01*
X76145146Y-47845175D01*
X76138081Y-47835070D01*
X76113928Y-47794726D01*
X76086957Y-47741705D01*
X76062679Y-47686903D01*
X76060871Y-47682399D01*
X76037116Y-47625106D01*
X76010912Y-47565681D01*
X75987788Y-47516648D01*
X75987042Y-47515153D01*
X75964721Y-47464698D01*
X75945554Y-47411348D01*
X75937192Y-47381250D01*
X75929124Y-47342842D01*
X75919076Y-47291116D01*
X75908043Y-47231702D01*
X75897022Y-47170229D01*
X75887012Y-47112327D01*
X75879007Y-47063626D01*
X75874004Y-47029755D01*
X75872822Y-47017658D01*
X75877793Y-47009884D01*
X75893860Y-46999368D01*
X75922750Y-46985434D01*
X75966193Y-46967408D01*
X76025916Y-46944615D01*
X76103648Y-46916380D01*
X76201118Y-46882030D01*
X76320054Y-46840888D01*
X76366815Y-46824848D01*
X76464088Y-46791424D01*
X76577079Y-46752411D01*
X76697918Y-46710540D01*
X76818736Y-46668538D01*
X76931663Y-46629135D01*
X76979616Y-46612345D01*
X77088161Y-46574284D01*
X77175457Y-46543707D01*
X77243868Y-46519853D01*
X77295757Y-46501959D01*
X77333486Y-46489262D01*
X77359420Y-46481000D01*
X77375922Y-46476411D01*
X77385354Y-46474732D01*
X77390081Y-46475201D01*
G37*
%TD*%
%LPC*%
M02*
